<?xml version="1.0" encoding="UTF-8" standalone="no"?>
<!-- Created with Inkscape (http://www.inkscape.org/) -->

<svg
   width="180mm"
   height="180mm"
   viewBox="0 0 180 180"
   version="1.1"
   id="svg1853"
   inkscape:version="1.2 (dc2aedaf03, 2022-05-15)"
   sodipodi:docname="desenho.svg"
   inkscape:export-filename="pavinstone.png"
   inkscape:export-xdpi="300"
   inkscape:export-ydpi="300"
   xmlns:inkscape="http://www.inkscape.org/namespaces/inkscape"
   xmlns:sodipodi="http://sodipodi.sourceforge.net/DTD/sodipodi-0.dtd"
   xmlns="http://www.w3.org/2000/svg"
   xmlns:svg="http://www.w3.org/2000/svg">
  <sodipodi:namedview
     id="namedview1855"
     pagecolor="#ffffff"
     bordercolor="#000000"
     borderopacity="0.25"
     inkscape:showpageshadow="2"
     inkscape:pageopacity="0.0"
     inkscape:pagecheckerboard="0"
     inkscape:deskcolor="#d1d1d1"
     inkscape:document-units="mm"
     showgrid="true"
     showguides="false"
     inkscape:zoom="0.81764678"
     inkscape:cx="32.410083"
     inkscape:cy="316.7627"
     inkscape:window-width="1600"
     inkscape:window-height="829"
     inkscape:window-x="-8"
     inkscape:window-y="-8"
     inkscape:window-maximized="1"
     inkscape:current-layer="layer1">
    <inkscape:grid
       type="axonomgrid"
       id="grid1976"
       units="px"
       spacingy="5.2916668" />
  </sodipodi:namedview>
  <defs
     id="defs1850">
    <linearGradient
       id="linearGradient11240"
       inkscape:swatch="solid">
      <stop
         style="stop-color:#000000;stop-opacity:1;"
         offset="0"
         id="stop11238" />
    </linearGradient>
  </defs>
  <g
     inkscape:label="Camada 1"
     inkscape:groupmode="layer"
     id="layer1">
    <path
       id="rect2082"
       style="fill:#666666;fill-opacity:0.545098;stroke:#000000;stroke-width:0.264583;stroke-opacity:1"
       d="M 22.283429,67.554917 68.116847,41.186277 113.95622,67.585447 68.111161,94.170421 Z"
       sodipodi:nodetypes="ccccc" />
    <path
       id="rect2082-4"
       style="fill:#666666;fill-opacity:0.545098;stroke-width:0.264583"
       d="M 22.256328,88.597532 68.089746,62.228892 113.92912,88.628062 68.08406,115.21304 Z"
       sodipodi:nodetypes="ccccc" />
    <path
       id="rect2107"
       style="fill:#333333;fill-opacity:0.545098;stroke:#000000;stroke-width:0.264583;stroke-opacity:1"
       d="m 22.283966,67.588026 45.817967,26.58239 V 115.21304 L 22.292641,88.720956 Z"
       sodipodi:nodetypes="ccccc" />
    <path
       id="rect2188"
       style="fill:#4d4d4d;fill-opacity:0.545098;stroke:#000000;stroke-width:0.264583;stroke-opacity:1"
       d="M 68.092724,94.323376 113.92912,67.678505 V 88.720966 L 68.234224,115.44237 Z"
       sodipodi:nodetypes="ccccc" />
    <path
       id="rect2798"
       style="fill:#f6f6f6;fill-opacity:0.545098;stroke:#000000;stroke-width:0.178081;stroke-opacity:1"
       d="m 33.771433,64.088569 -6.827919,3.416817 0.03499,0.01631 v 1.059228 h 3.77e-4 l -3.77e-4,3.21e-4 0.06939,0.03237 6.766858,3.183451 v -0.03109 l 0.04374,0.02017 3.77e-4,0.01028 0.01056,-0.0051 0.01207,0.0051 3.825154,-1.917514 2.555015,-1.273324 v -0.0077 l 0.03469,-0.01734 -0.03469,-0.01824 v -1.158093 l -0.01207,0.0064 z" />
    <path
       id="rect2798-5"
       style="fill:#f6f6f6;fill-opacity:0.545098;stroke:#000000;stroke-width:0.178081;stroke-opacity:1"
       d="m 57.195899,51.282411 -6.827919,3.416817 0.03499,0.01631 v 1.059228 h 3.77e-4 l -3.77e-4,3.21e-4 0.06939,0.03237 6.766858,3.183451 v -0.03109 l 0.04374,0.02017 3.77e-4,0.01028 0.01056,-0.0051 0.01207,0.0051 3.825154,-1.917514 2.555015,-1.273324 v -0.0077 l 0.03469,-0.01734 -0.03469,-0.01824 v -1.158093 l -0.01207,0.0064 z" />
    <path
       id="rect2798-3"
       style="fill:#f6f6f6;fill-opacity:0.545098;stroke:#000000;stroke-width:0.178081;stroke-opacity:1"
       d="m 68.76816,44.941769 -6.827919,3.416817 0.03499,0.01631 v 1.059228 h 3.77e-4 l -3.77e-4,3.21e-4 0.06939,0.03237 6.766858,3.183451 v -0.03109 l 0.04374,0.02017 3.77e-4,0.01028 0.01056,-0.0051 0.01207,0.0051 3.825154,-1.917514 2.555015,-1.273324 v -0.0077 l 0.03469,-0.01734 -0.03469,-0.01824 v -1.158093 l -0.01207,0.0064 z" />
    <path
       id="rect2798-38"
       style="fill:#f6f6f6;fill-opacity:0.545098;stroke:#000000;stroke-width:0.178081;stroke-opacity:1"
       d="m 45.385395,57.937816 -6.82791,3.41682 0.035,0.0163 v 1.05923 h 3.7e-4 l -3.7e-4,3.2e-4 0.0694,0.0324 6.76685,3.18345 v -0.0311 l 0.0437,0.0202 3.8e-4,0.0103 0.0106,-0.005 0.0121,0.005 3.82515,-1.91751 2.55502,-1.27333 v -0.008 l 0.0347,-0.0173 -0.0347,-0.0182 v -1.15809 l -0.0121,0.006 z" />
    <path
       id="rect2798-8"
       style="fill:#f6f6f6;fill-opacity:0.545098;stroke:#000000;stroke-width:0.178081;stroke-opacity:1"
       d="m 43.891252,69.743769 -6.827919,3.416817 0.03499,0.01631 v 1.059228 h 3.77e-4 l -3.77e-4,3.21e-4 0.06939,0.03237 6.766858,3.183451 v -0.03109 l 0.04374,0.02017 3.77e-4,0.01028 0.01056,-0.0051 0.01207,0.0051 3.825154,-1.917514 2.555015,-1.273324 v -0.0077 l 0.03469,-0.01734 -0.03469,-0.01824 v -1.158092 l -0.01207,0.0064 z" />
    <path
       id="rect2798-0"
       style="fill:#f6f6f6;fill-opacity:0.545098;stroke:#000000;stroke-width:0.178081;stroke-opacity:1"
       d="m 55.026693,63.652639 -6.827919,3.416817 0.03499,0.01631 v 1.059228 h 3.77e-4 l -3.77e-4,3.21e-4 0.06939,0.03237 6.766858,3.183451 v -0.03109 l 0.04374,0.02017 3.77e-4,0.01028 0.01056,-0.0051 0.01207,0.0051 3.825154,-1.917514 2.555015,-1.273324 v -0.0077 l 0.03469,-0.01734 -0.03469,-0.01824 v -1.158093 l -0.01207,0.0064 z" />
    <path
       id="rect2798-7"
       style="fill:#f6f6f6;fill-opacity:0.545098;stroke:#000000;stroke-width:0.178081;stroke-opacity:1"
       d="m 66.392835,57.342609 -6.827919,3.416817 0.03499,0.01631 v 1.059228 h 3.77e-4 l -3.77e-4,3.21e-4 0.06939,0.03237 6.766858,3.183451 v -0.03109 l 0.04374,0.02017 3.77e-4,0.01028 0.01056,-0.0051 0.01207,0.0051 3.825154,-1.917514 2.555015,-1.273324 v -0.0077 l 0.03469,-0.01734 -0.03469,-0.01824 v -1.158093 l -0.01207,0.0064 z" />
    <path
       id="rect2798-4"
       style="fill:#f6f6f6;fill-opacity:0.545098;stroke:#000000;stroke-width:0.178081;stroke-opacity:1"
       d="m 77.811418,50.192667 -6.827919,3.416817 0.03499,0.01631 v 1.059228 h 3.77e-4 l -3.77e-4,3.21e-4 0.06939,0.03237 6.766858,3.183451 v -0.03109 l 0.04374,0.02017 3.77e-4,0.01028 0.01056,-0.0051 0.01207,0.0051 3.825154,-1.917514 2.555015,-1.273324 v -0.0077 l 0.03469,-0.01734 -0.03469,-0.01824 v -1.158093 l -0.01207,0.0064 z" />
    <path
       id="rect2798-4-7"
       style="fill:#f6f6f6;fill-opacity:0.545098;stroke:#000000;stroke-width:0.178081;stroke-opacity:1"
       d="m 53.791215,75.151719 -6.827919,3.416817 0.03499,0.01631 v 1.059228 h 3.77e-4 l -3.77e-4,3.21e-4 0.06939,0.03237 6.766858,3.183451 v -0.03109 l 0.04374,0.02017 3.77e-4,0.01028 0.01056,-0.0051 0.01207,0.0051 3.825154,-1.917514 2.555015,-1.273324 v -0.0077 l 0.03469,-0.01734 -0.03469,-0.01824 v -1.158093 l -0.01207,0.0064 z" />
    <path
       id="rect2798-4-3"
       style="fill:#f6f6f6;fill-opacity:0.545098;stroke:#000000;stroke-width:0.178081;stroke-opacity:1"
       d="m 65.690745,80.996776 -6.827919,3.416817 0.03499,0.01631 v 1.059228 h 3.77e-4 l -3.77e-4,3.21e-4 0.06939,0.03237 6.766858,3.183451 v -0.03109 l 0.04374,0.02017 3.77e-4,0.01028 0.01056,-0.0051 0.01207,0.0051 3.825154,-1.917514 2.555015,-1.273324 v -0.0077 l 0.03469,-0.01734 -0.03469,-0.01824 v -1.158093 l -0.01207,0.0064 z" />
    <path
       id="rect2798-4-4"
       style="fill:#f6f6f6;fill-opacity:0.545098;stroke:#000000;stroke-width:0.178081;stroke-opacity:1"
       d="m 65.566812,69.198291 -6.827919,3.416817 0.03499,0.01631 v 1.059228 h 3.77e-4 l -3.77e-4,3.21e-4 0.06939,0.03237 6.766858,3.183451 v -0.03109 l 0.04374,0.02017 3.77e-4,0.01028 0.01056,-0.0051 0.01207,0.0051 3.825154,-1.917514 2.555015,-1.273324 v -0.0077 l 0.03469,-0.01734 -0.03469,-0.01824 v -1.158093 l -0.01207,0.0064 z" />
    <path
       id="rect2798-4-8"
       style="fill:#f6f6f6;fill-opacity:0.545098;stroke:#000000;stroke-width:0.178081;stroke-opacity:1"
       d="m 76.829895,74.747178 -6.82792,3.416817 0.035,0.01631 v 1.059228 h 3.7e-4 l -3.7e-4,3.21e-4 0.0694,0.03237 6.76686,3.183449 v -0.0311 l 0.0437,0.0202 3.7e-4,0.0103 0.0106,-0.005 0.0121,0.005 3.82516,-1.91751 2.55501,-1.273326 v -0.0077 l 0.0347,-0.01734 -0.0347,-0.01824 v -1.158093 l -0.0121,0.0064 z" />
    <path
       id="rect2798-4-0"
       style="fill:#f6f6f6;fill-opacity:0.545098;stroke:#000000;stroke-width:0.178081;stroke-opacity:1"
       d="m 76.885651,62.96311 -6.827919,3.416817 0.03499,0.01631 v 1.059228 h 3.77e-4 l -3.77e-4,3.21e-4 0.06939,0.03237 6.766858,3.183451 v -0.03109 l 0.04374,0.02017 3.77e-4,0.01028 0.01056,-0.0051 0.01207,0.0051 3.825154,-1.917514 2.555015,-1.273324 v -0.0077 l 0.03469,-0.01734 -0.03469,-0.01824 v -1.158093 l -0.01207,0.0064 z" />
    <path
       id="rect2798-4-73"
       style="fill:#f6f6f6;fill-opacity:0.545098;stroke:#000000;stroke-width:0.178081;stroke-opacity:1"
       d="m 87.976084,55.979237 -6.827919,3.416817 0.03499,0.01631 v 1.059228 h 3.77e-4 l -3.77e-4,3.21e-4 0.06939,0.03237 6.766858,3.183451 v -0.03109 l 0.04374,0.02017 3.77e-4,0.01028 0.01056,-0.0051 0.01207,0.0051 3.825154,-1.917514 2.555015,-1.273324 v -0.0077 l 0.03469,-0.01734 -0.03469,-0.01824 v -1.158093 l -0.01207,0.0064 z" />
    <path
       id="rect2798-4-6"
       style="fill:#f6f6f6;fill-opacity:0.545098;stroke:#000000;stroke-width:0.178081;stroke-opacity:1"
       d="m 98.354987,61.918085 -6.827919,3.416817 0.03499,0.01631 v 1.059228 h 3.77e-4 l -3.77e-4,3.21e-4 0.06939,0.03237 6.766858,3.183451 v -0.03109 l 0.04374,0.02017 3.77e-4,0.01028 0.01056,-0.0051 0.01207,0.0051 3.825147,-1.917514 2.55502,-1.273324 v -0.0077 l 0.0347,-0.01734 -0.0347,-0.01824 v -1.158093 l -0.0121,0.0064 z" />
    <path
       id="rect2798-4-6-8"
       style="fill:#f6f6f6;fill-opacity:0.545098;stroke:#000000;stroke-width:0.178081;stroke-opacity:1"
       d="m 87.247715,68.557744 -6.827919,3.416817 0.03499,0.01631 v 1.059228 h 3.77e-4 l -3.77e-4,3.21e-4 0.06939,0.03237 6.766858,3.183451 v -0.03109 l 0.04374,0.02017 3.77e-4,0.01028 0.01056,-0.0051 0.01207,0.0051 3.825151,-1.917514 2.55502,-1.273324 v -0.0077 l 0.0347,-0.01734 -0.0347,-0.01824 V 71.87339 l -0.0121,0.0064 z" />
    <path
       id="path20112-1"
       style="fill:#aa4400;fill-opacity:0.875;stroke:#160a03;stroke-width:0.264583;stroke-opacity:1"
       d="m 33.815435,64.322619 -6.092135,3.20342 z m 0.657841,0.37207 -6.092135,3.20342 z m 0.778767,0.41496 -6.092138,3.20342 z m 0.7152,0.42891 -6.092136,3.20342 z m 0.7152,0.40049 -6.092134,3.20343 z m 0.65784,0.37156 -6.092133,3.20342 z m 0.77876,0.41496 -6.092646,3.20342 z m 0.71469,0.42891 -6.092135,3.20343 z m 0.77256,0.28629 -6.092132,3.20342 z" />
    <path
       id="path20112-6"
       style="fill:#aa4400;fill-opacity:0.875;stroke:#160a03;stroke-width:0.264583;stroke-opacity:1"
       d="m 57.516977,51.464213 -6.092135,3.20342 z m 0.657841,0.37207 -6.092135,3.20342 z m 0.778767,0.41496 -6.092138,3.20342 z m 0.7152,0.42891 -6.092136,3.20342 z m 0.7152,0.40049 -6.092134,3.20343 z m 0.65784,0.37156 -6.092133,3.20342 z m 0.77876,0.41496 -6.092646,3.20342 z m 0.71469,0.42891 -6.092135,3.20343 z m 0.77256,0.28629 -6.092132,3.20342 z" />
    <path
       id="path20112-9"
       style="fill:#aa4400;fill-opacity:0.875;stroke:#160a03;stroke-width:0.264583;stroke-opacity:1"
       d="M 54.987135,63.849101 48.895,67.052521 Z m 0.657841,0.37207 -6.092135,3.20342 z m 0.778767,0.41496 -6.092138,3.20342 z m 0.7152,0.42891 -6.092136,3.20342 z m 0.7152,0.40049 -6.092134,3.20343 z m 0.65784,0.37156 -6.092133,3.20342 z m 0.77876,0.41496 -6.092646,3.20342 z m 0.71469,0.42891 -6.092135,3.20343 z m 0.77256,0.28629 -6.092132,3.20342 z" />
    <path
       id="path20112-4"
       style="fill:#aa4400;fill-opacity:0.875;stroke:#160a03;stroke-width:0.264583;stroke-opacity:1"
       d="m 77.436651,50.577915 -6.092135,3.20342 z m 0.657841,0.37207 -6.092135,3.20342 z m 0.778767,0.41496 -6.092138,3.20342 z m 0.7152,0.42891 -6.092136,3.20342 z m 0.7152,0.40049 -6.092134,3.20343 z m 0.65784,0.37156 -6.092133,3.20342 z m 0.77876,0.41496 -6.092646,3.20342 z m 0.71469,0.42891 -6.092135,3.20343 z m 0.77256,0.28629 -6.092132,3.20342 z" />
    <path
       id="path20112-4-4"
       style="fill:#aa4400;fill-opacity:0.875;stroke:#160a03;stroke-width:0.264583;stroke-opacity:1"
       d="m 76.75021,63.162661 -6.092135,3.20342 z m 0.657841,0.37207 -6.092135,3.20342 z m 0.778767,0.41496 -6.092138,3.20342 z m 0.7152,0.42891 -6.092136,3.20342 z m 0.7152,0.40049 -6.092134,3.20343 z m 0.65784,0.37156 -6.092133,3.20342 z m 0.77876,0.41496 -6.092646,3.20342 z m 0.71469,0.42891 -6.092135,3.20343 z m 0.77256,0.28629 -6.092132,3.20342 z" />
    <path
       id="path20112-7"
       style="fill:#aa4400;fill-opacity:0.875;stroke:#160a03;stroke-width:0.264583;stroke-opacity:1"
       d="m 53.773788,75.560612 -6.092135,3.20342 z m 0.657841,0.37207 -6.092135,3.20342 z m 0.778767,0.41496 -6.092138,3.20342 z m 0.7152,0.42891 -6.092136,3.20342 z m 0.7152,0.40049 -6.092134,3.20343 z m 0.65784,0.37156 -6.092133,3.20342 z m 0.77876,0.41496 -6.092646,3.20342 z m 0.71469,0.42891 -6.092135,3.20343 z m 0.77256,0.28629 -6.092132,3.20342 z" />
    <path
       id="path20112-90"
       style="fill:#aa4400;fill-opacity:0.875;stroke:#160a03;stroke-width:0.264583;stroke-opacity:1"
       d="m 76.871064,75.104397 -6.092135,3.20342 z m 0.657841,0.37207 -6.092135,3.20342 z m 0.778767,0.41496 -6.092138,3.20342 z m 0.7152,0.42891 -6.092136,3.20342 z m 0.7152,0.40049 -6.092134,3.20343 z m 0.65784,0.37156 -6.092133,3.20342 z m 0.77876,0.41496 -6.092646,3.20342 z m 0.71469,0.42891 -6.092135,3.20343 z m 0.77256,0.28629 -6.092132,3.20342 z" />
    <path
       id="path20112-70"
       style="fill:#aa4400;fill-opacity:0.875;stroke:#160a03;stroke-width:0.264583;stroke-opacity:1"
       d="m 98.500391,62.419722 -6.092135,3.20342 z m 0.657841,0.37207 -6.092135,3.20342 z m 0.778767,0.41496 -6.092138,3.20342 z m 0.715201,0.42891 -6.092137,3.20342 z m 0.7152,0.40049 -6.092135,3.20343 z m 0.65784,0.37156 -6.092134,3.20342 z m 0.77876,0.41496 -6.092647,3.20342 z m 0.71469,0.42891 -6.092136,3.20343 z m 0.77256,0.28629 -6.092133,3.20342 z" />
    <path
       style="fill:none;fill-opacity:0.875;stroke:#7c3911;stroke-width:0.965;stroke-dasharray:none;stroke-dashoffset:0;stroke-opacity:1"
       d="M 24.542463,67.963056 C 66.93776,93.006797 68.23269,92.545204 68.234224,92.542354"
       id="path21251"
       sodipodi:nodetypes="cc" />
    <path
       style="fill:none;fill-opacity:0.875;stroke:#7c3911;stroke-width:0.965;stroke-dasharray:none;stroke-dashoffset:0;stroke-opacity:1"
       d="M 45.709169,55.879424 C 88.104466,80.923165 89.818133,80.030392 89.819667,80.027542"
       id="path21251-5"
       sodipodi:nodetypes="cc" />
    <path
       style="fill:none;fill-opacity:0.875;stroke:#7c3911;stroke-width:0.792883;stroke-dasharray:none;stroke-dashoffset:0;stroke-opacity:1"
       d="m 68.379754,43.036914 c 38.523496,21.926161 43.338886,24.673238 43.409516,24.41167"
       id="path21251-2"
       sodipodi:nodetypes="cc" />
    <path
       style="fill:none;fill-opacity:0.875;stroke:#7c3911;stroke-width:0.964999;stroke-dasharray:none;stroke-dashoffset:0;stroke-opacity:1"
       d="M 68.092724,92.669491 111.54661,67.385593 v 0"
       id="path25405" />
  </g>
</svg>
