<?xml version="1.0" encoding="UTF-8" standalone="no"?>
<!-- Created with Inkscape (http://www.inkscape.org/) -->

<svg
   width="297mm"
   height="210mm"
   viewBox="0 0 1122.5197 793.70081"
   version="1.1"
   id="svg5"
   inkscape:version="1.2 (dc2aedaf03, 2022-05-15)"
   sodipodi:docname="Figura_experimento_pool_riffle_final.svg"
   inkscape:export-filename="MS_Junqueira_et_al\Figura_pool_riffle.png"
   inkscape:export-xdpi="600"
   inkscape:export-ydpi="600"
   xmlns:inkscape="http://www.inkscape.org/namespaces/inkscape"
   xmlns:sodipodi="http://sodipodi.sourceforge.net/DTD/sodipodi-0.dtd"
   xmlns="http://www.w3.org/2000/svg"
   xmlns:svg="http://www.w3.org/2000/svg">
  <sodipodi:namedview
     id="namedview7"
     pagecolor="#ffffff"
     bordercolor="#000000"
     borderopacity="0.25"
     inkscape:showpageshadow="2"
     inkscape:pageopacity="0.0"
     inkscape:pagecheckerboard="0"
     inkscape:deskcolor="#d1d1d1"
     inkscape:document-units="mm"
     showgrid="true"
     inkscape:zoom="0.81768849"
     inkscape:cx="504.47084"
     inkscape:cy="541.77111"
     inkscape:window-width="1600"
     inkscape:window-height="829"
     inkscape:window-x="-8"
     inkscape:window-y="-8"
     inkscape:window-maximized="1"
     inkscape:current-layer="layer1">
    <inkscape:grid
       type="xygrid"
       id="grid223"
       enabled="false" />
    <inkscape:grid
       type="axonomgrid"
       id="grid24829"
       spacingy="20"
       units="px" />
  </sodipodi:namedview>
  <defs
     id="defs2">
    <rect
       x="569.59344"
       y="90.193271"
       width="196.05024"
       height="65.058178"
       id="rect37072" />
    <inkscape:perspective
       sodipodi:type="inkscape:persp3d"
       inkscape:vp_x="120.40119 : 206.58469 : 1"
       inkscape:vp_y="-682.46483 : -81.974213 : 0"
       inkscape:vp_z="377.39604 : 412.36033 : 1"
       inkscape:persp3d-origin="224.8559 : 179.56088 : 1"
       id="perspective8504" />
    <rect
       x="22.483839"
       y="19.024787"
       width="19.88955"
       height="23.348602"
       id="rect501" />
  </defs>
  <g
     inkscape:groupmode="layer"
     id="layer2"
     inkscape:label="Camada 2" />
  <g
     inkscape:label="Camada 1"
     inkscape:groupmode="layer"
     id="layer1">
    <path
       style="fill:#ffb380;stroke-width:2.09943"
       d="m 535.91008,353.59819 -7.26203,584.59325"
       id="path225"
       sodipodi:nodetypes="cc" />
    <path
       style="fill:#ffb380;stroke-width:0.742259"
       d="m 529.5558,355.4137 -0.90775,580.05444"
       id="path227"
       sodipodi:nodetypes="cc" />
    <path
       style="fill:#00a8ff;fill-opacity:0.833333;stroke-width:0.742259"
       d="m 117.03626,640.94899 44.28964,-66.1135"
       id="path9398"
       sodipodi:nodetypes="cc" />
    <path
       style="fill:#803300;fill-opacity:0.833333;stroke-width:0.742259"
       d="m 208.18304,508.72199 21.82387,103.02152"
       id="path24898"
       sodipodi:nodetypes="cc" />
    <path
       id="rect25086"
       style="fill:#3f90f6;fill-opacity:0.564394;stroke-width:0.790464"
       d="M 936.45689,46.146445 1072.9338,126.61761 227.20213,615.5061 90.794192,535.81086 Z"
       sodipodi:nodetypes="ccccc" />
    <path
       id="rect25086-0"
       style="fill:#3f90f4;fill-opacity:0.454546;stroke-width:0.790464"
       d="m 936.45689,106.34332 137.41461,80.481 L 231.99422,670.68177 90.794202,589.3057 Z"
       sodipodi:nodetypes="ccccc" />
    <path
       id="path39903-8"
       style="fill:#333333;fill-opacity:0.545098;stroke-width:0.62239"
       d="m 695.30662,248.86862 -31.2168,18.29688 0.37891,0.22851 v 6.32422 l 21.44726,12.44531 0.0547,-0.0332 0.29687,0.17773 32.75196,-18.83789 -0.65039,-0.34961 v -5.84961 l -5.27539,3.01953 -0.008,-0.004 5.28516,-3.04102 z m 44.32617,29.89844 -31.21875,18.29883 0.38086,0.22851 v 6.32422 l 21.44531,12.44531 0.0566,-0.0332 0.29688,0.17578 32.75,-18.83594 -0.64649,-0.34961 v -5.84961 l -5.27734,3.01954 -0.01,-0.006 5.28711,-3.03907 z" />
    <path
       id="path39903-05"
       style="fill:#333333;fill-opacity:0.545098;stroke-width:0.62239"
       d="m 624.26981,291.51813 -31.2168,18.29688 0.37891,0.22851 v 6.32422 l 21.44726,12.44531 0.0547,-0.0332 0.29687,0.17773 32.75196,-18.83789 -0.65039,-0.34961 v -5.84961 l -5.27539,3.01953 -0.008,-0.004 5.28516,-3.04102 z m 44.32617,29.89844 -31.21875,18.29883 0.38086,0.22851 v 6.32422 l 21.44531,12.44531 0.0566,-0.0332 0.29688,0.17578 32.75,-18.83594 -0.64649,-0.34961 v -5.84961 l -5.27734,3.01954 -0.01,-0.006 5.28711,-3.03907 z" />
    <path
       id="path39903-1"
       style="fill:#333333;fill-opacity:0.545098;stroke-width:0.62239"
       d="m 773.62349,204.65834 -31.2168,18.29688 0.37891,0.22851 v 6.32422 l 21.44726,12.44531 0.0547,-0.0332 0.29687,0.17773 32.75196,-18.83789 -0.65039,-0.34961 v -5.84961 l -5.27539,3.01953 -0.008,-0.004 5.28516,-3.04102 z m 44.32617,29.89844 -31.21875,18.29883 0.38086,0.22851 v 6.32422 l 21.44531,12.44531 0.0566,-0.0332 0.29688,0.17578 32.75,-18.83594 -0.64649,-0.34961 v -5.84961 l -5.27734,3.01954 -0.01,-0.006 5.28711,-3.03907 z" />
    <path
       id="path39903-12"
       style="fill:#333333;fill-opacity:0.545098;stroke-width:0.62239"
       d="m 918.15983,123.42275 -31.2168,18.29688 0.37891,0.22851 v 6.32422 l 21.44726,12.44531 0.0547,-0.0332 0.29687,0.17773 32.75196,-18.83789 -0.65039,-0.34961 v -5.84961 l -5.27539,3.01953 -0.008,-0.004 5.28516,-3.04102 z m 44.32617,29.89844 -31.21875,18.29883 0.38086,0.22851 v 6.32422 l 21.44531,12.44531 0.0566,-0.0332 0.29688,0.17578 32.75,-18.83594 -0.64649,-0.34961 v -5.84961 l -5.27734,3.01954 -0.01,-0.006 5.28711,-3.03907 z" />
    <path
       id="path39903-5"
       style="fill:#333333;fill-opacity:0.545098;stroke-width:0.62239"
       d="m 849.38593,161.09517 -31.2168,18.29688 0.37891,0.22851 v 6.32422 l 21.44726,12.44531 0.0547,-0.0332 0.29687,0.17773 32.75196,-18.83789 -0.65039,-0.34961 v -5.84961 l -5.27539,3.01953 -0.008,-0.004 5.28516,-3.04102 z m 44.32617,29.89844 -31.21875,18.29883 0.38086,0.22851 v 6.32422 l 21.44531,12.44531 0.0566,-0.0332 0.29688,0.17578 32.75,-18.83594 -0.64649,-0.34961 v -5.84961 l -5.27734,3.01954 -0.01,-0.006 5.28711,-3.03907 z" />
    <path
       id="rect25111"
       style="fill:#3f90f4;fill-opacity:0.412879;stroke-width:0.86112"
       d="M 90.794192,535.81086 227.62933,615.5061 227.58123,668.19332 90.794162,589.3057 Z"
       sodipodi:nodetypes="ccccc" />
    <path
       id="rect25142"
       style="fill:#3e8ff5;fill-opacity:0.627451;stroke-width:0.742259"
       d="m 935.67771,46.838745 138.05229,79.799765 0.1415,60.18581 -137.12133,-81.01166 z"
       sodipodi:nodetypes="ccccc" />
    <path
       id="rect27036-1-4-8-7"
       style="fill:#008012;fill-opacity:0.606061;stroke-width:0.661798"
       d="M 36.418554,504.04491 884.01777,16.883245 936.45689,46.675275 91.658952,535.81086 Z"
       sodipodi:nodetypes="ccccc" />
    <path
       id="rect31277"
       style="fill:#ab4400;fill-opacity:0.545098"
       d="m 36.418554,517.01262 54.375638,31.74449 1e-5,40.54859 -54.375648,-31.42789 z"
       sodipodi:nodetypes="ccccc" />
    <path
       id="rect31748"
       style="fill:#138449;fill-opacity:0.85098;stroke-width:1.00811"
       d="m 36.418554,504.04491 54.375638,31.31505 v 13.7029 L 36.418554,517.01262 Z"
       sodipodi:nodetypes="ccccc" />
    <path
       id="rect32876"
       style="fill:#ab4400;fill-opacity:0.545098"
       d="M 281.79163,659.89595 1073.8715,208.12018 v 39.5535 L 281.79163,705.22006 Z"
       sodipodi:nodetypes="ccccc" />
    <path
       id="rect36428"
       style="fill:#ab4400;fill-opacity:0.545098"
       d="M 36.418554,557.82168 281.79163,699.58132 v 5.63874 L 36.418554,564.13459 Z"
       sodipodi:nodetypes="ccccc" />
    <path
       id="rect27036-1-4-8-7-6"
       style="fill:#008012;fill-opacity:0.606061;stroke-width:0.661798"
       d="M 226.98076,615.28991 1073.8715,125.31347 v 55.24132 L 281.84856,645.25422 Z"
       sodipodi:nodetypes="ccccc" />
    <path
       id="rect31748-3"
       style="fill:#138449;fill-opacity:0.85098;stroke-width:1.00811"
       d="m 227.41599,614.878 54.37564,30.37622 v 14.64173 l -54.37564,-32.05024 z"
       sodipodi:nodetypes="ccccc" />
    <path
       id="rect31277-9"
       style="fill:#ab4400;fill-opacity:0.545098"
       d="m 227.45354,627.44513 54.37564,31.74449 10e-6,40.54859 -54.37565,-31.42789 z"
       sodipodi:nodetypes="ccccc" />
    <path
       id="rect37921"
       style="fill:#0e8245;fill-opacity:0.784314"
       d="M 280.00453,642.88625 1073.8715,180.55479 v 27.45756 l -792.07987,451.8836 z"
       sodipodi:nodetypes="ccccc" />
    <text
       xml:space="preserve"
       style="font-style:normal;font-variant:normal;font-weight:bold;font-stretch:normal;font-size:24px;font-family:sans-serif;-inkscape-font-specification:'sans-serif Bold';text-align:center;text-anchor:middle;fill:#1a1a1a;fill-opacity:0.545098"
       x="685.44354"
       y="476.70956"
       id="text38278"
       transform="rotate(-29.99968)"><tspan
         sodipodi:role="line"
         id="tspan38276"
         x="685.44354"
         y="476.70956"
         style="font-size:24px;fill:#1a1a1a">water flow</tspan></text>
    <text
       xml:space="preserve"
       style="font-style:normal;font-variant:normal;font-weight:bold;font-stretch:normal;font-size:24px;line-height:0.6;font-family:sans-serif;-inkscape-font-specification:'sans-serif Bold';text-align:center;text-anchor:middle;fill:#333333;fill-opacity:0.545098"
       x="486.311"
       y="351.21738"
       id="text38278-5"
       transform="rotate(30)"><tspan
         sodipodi:role="line"
         id="tspan38276-1"
         x="486.311"
         y="351.21738"
         style="font-size:24px;fill:#ffffff">Riffle</tspan></text>
    <text
       xml:space="preserve"
       style="font-style:normal;font-variant:normal;font-weight:bold;font-stretch:normal;font-size:24px;line-height:0.6;font-family:sans-serif;-inkscape-font-specification:'sans-serif Bold';text-align:center;text-anchor:middle;fill:#333333;fill-opacity:0.545098"
       x="584.27393"
       y="179.22002"
       id="text38278-5-3"
       transform="rotate(30)"><tspan
         sodipodi:role="line"
         id="tspan38276-1-2"
         x="584.27393"
         y="179.22002"
         style="font-size:24px;fill:#ffffff">Riffle</tspan></text>
    <text
       xml:space="preserve"
       style="font-style:normal;font-variant:normal;font-weight:bold;font-stretch:normal;font-size:24px;line-height:0.6;font-family:sans-serif;-inkscape-font-specification:'sans-serif Bold';text-align:center;text-anchor:middle;fill:#333333;fill-opacity:0.545098"
       x="689.961"
       y="4.7730947"
       id="text38278-5-3-5"
       transform="rotate(30)"><tspan
         sodipodi:role="line"
         id="tspan38276-1-2-6"
         x="689.961"
         y="4.7730947"
         style="font-size:24px;fill:#ffffff">Riffle</tspan></text>
    <text
       xml:space="preserve"
       style="font-style:normal;font-variant:normal;font-weight:bold;font-stretch:normal;font-size:24px;line-height:0.6;font-family:sans-serif;-inkscape-font-specification:'sans-serif Bold';text-align:center;text-anchor:middle;fill:#333333;fill-opacity:0.545098"
       x="779.64673"
       y="-150.71736"
       id="text38278-5-3-5-8"
       transform="rotate(30)"><tspan
         sodipodi:role="line"
         id="tspan38276-1-2-6-7"
         x="779.64673"
         y="-150.71736"
         style="font-size:24px;fill:#ffffff">Riffle</tspan></text>
    <text
       xml:space="preserve"
       style="font-style:normal;font-variant:normal;font-weight:bold;font-stretch:normal;font-size:24px;line-height:0.6;font-family:sans-serif;-inkscape-font-specification:'sans-serif Bold';text-align:center;text-anchor:middle;fill:#333333;fill-opacity:0.545098"
       x="865.0199"
       y="-296.86618"
       id="text38278-5-3-5-8-4"
       transform="rotate(30)"><tspan
         sodipodi:role="line"
         id="tspan38276-1-2-6-7-4"
         x="865.0199"
         y="-296.86618"
         style="font-size:24px;fill:#ffffff">Riffle</tspan></text>
    <text
       xml:space="preserve"
       style="font-style:normal;font-variant:normal;font-weight:bold;font-stretch:normal;font-size:24px;font-family:sans-serif;-inkscape-font-specification:'sans-serif Bold';text-align:center;text-anchor:middle;fill:#333333;fill-opacity:0.545098"
       x="538.68231"
       y="265.78168"
       id="text38278-9"
       transform="rotate(30)"><tspan
         sodipodi:role="line"
         id="tspan38276-6"
         x="538.68231"
         y="265.78168"
         style="font-size:24px;fill:#ffffff">Pool</tspan></text>
    <text
       xml:space="preserve"
       style="font-style:normal;font-variant:normal;font-weight:bold;font-stretch:normal;font-size:24px;font-family:sans-serif;-inkscape-font-specification:'sans-serif Bold';text-align:center;text-anchor:middle;fill:#333333;fill-opacity:0.545098"
       x="633.08813"
       y="90.537453"
       id="text38278-9-6"
       transform="rotate(30)"><tspan
         sodipodi:role="line"
         id="tspan38276-6-8"
         x="633.08813"
         y="90.537453"
         style="font-size:24px;fill:#ffffff">Pool</tspan></text>
    <text
       xml:space="preserve"
       style="font-style:normal;font-variant:normal;font-weight:bold;font-stretch:normal;font-size:24px;font-family:sans-serif;-inkscape-font-specification:'sans-serif Bold';text-align:center;text-anchor:middle;fill:#333333;fill-opacity:0.545098"
       x="736.25745"
       y="-74.036003"
       id="text38278-9-6-0"
       transform="rotate(30)"><tspan
         sodipodi:role="line"
         id="tspan38276-6-8-7"
         x="736.25745"
         y="-74.036003"
         style="font-size:24px;fill:#ffffff">Pool</tspan></text>
    <text
       xml:space="preserve"
       style="font-style:normal;font-variant:normal;font-weight:bold;font-stretch:normal;font-size:24px;font-family:sans-serif;-inkscape-font-specification:'sans-serif Bold';text-align:center;text-anchor:middle;fill:#333333;fill-opacity:0.545098"
       x="821.23218"
       y="-223.66505"
       id="text38278-9-6-0-2"
       transform="rotate(30)"><tspan
         sodipodi:role="line"
         id="tspan38276-6-8-7-5"
         x="821.23218"
         y="-223.66505"
         style="font-size:24px;fill:#ffffff">Pool</tspan></text>
    <text
       xml:space="preserve"
       style="font-style:normal;font-variant:normal;font-weight:bold;font-stretch:normal;font-size:24px;font-family:sans-serif;-inkscape-font-specification:'sans-serif Bold';text-align:center;text-anchor:middle;fill:#333333;fill-opacity:0.545098"
       x="903.10803"
       y="-360.30563"
       id="text38278-9-6-0-2-4"
       transform="rotate(30)"><tspan
         sodipodi:role="line"
         id="tspan38276-6-8-7-5-0"
         x="903.10803"
         y="-360.30563"
         style="font-size:24px;fill:#ffffff">Pool</tspan></text>
    <path
       id="rect38626-0-4-2"
       style="fill:#000000;fill-opacity:0.545098;stroke-width:2.95847"
       d="m 877.29468,60.362445 -42.17643,18.873314 -7.06967,-3.37379 -10.56321,16.113429 31.8741,-5.950077 -6.9297,-3.305581 41.03101,-19.513447 z"
       sodipodi:nodetypes="cccccccc" />
    <path
       style="fill:#333333;fill-opacity:0.545098;stroke-width:0.62239"
       d="m 231.71322,569.4686 -31.21737,18.29994 0.37938,0.22763 v 6.32399 l 21.44646,12.44515 0.0557,-0.0325 0.2973,0.17653 32.75038,-18.83727 -0.64727,-0.34841 v -5.85017 l -5.27722,3.01955 -0.009,-0.005 5.28652,-3.03967 z"
       id="path39899" />
    <path
       style="fill:#333333;fill-opacity:0.545098;stroke-width:0.62239"
       d="m 184.36159,541.732 -31.21737,18.2984 0.37938,0.22763 v 6.32399 l 21.44646,12.44514 0.0557,-0.0325 0.29731,0.17808 32.75037,-18.83881 -0.64881,-0.34841 v -5.85016 l -5.27568,3.01954 -0.009,-0.005 5.28496,-3.03967 z"
       id="path38062-8-08" />
    <path
       id="path39903"
       style="fill:#333333;fill-opacity:0.545098;stroke-width:0.62239"
       d="M 276.56251 488.92384 L 245.34571 507.22072 L 245.72462 507.44923 L 245.72462 513.77345 L 267.17188 526.21876 L 267.22657 526.18556 L 267.52344 526.36329 L 300.2754 507.5254 L 299.62501 507.17579 L 299.62501 501.32618 L 294.34962 504.34571 L 294.3418 504.34181 L 299.62696 501.30079 L 276.56251 488.92384 z M 320.88868 518.82228 L 289.66993 537.12111 L 290.05079 537.34962 L 290.05079 543.67384 L 311.4961 556.11915 L 311.55274 556.08595 L 311.84962 556.26173 L 344.59962 537.42579 L 343.95313 537.07618 L 343.95313 531.22657 L 338.67579 534.24611 L 338.66602 534.24025 L 343.95313 531.20118 L 320.88868 518.82228 z " />
    <path
       id="path39903-0"
       style="fill:#333333;fill-opacity:0.545098;stroke-width:0.62239"
       d="m 358.35836,443.68004 -31.2168,18.29688 0.37891,0.22851 v 6.32422 l 21.44726,12.44531 0.0547,-0.0332 0.29687,0.17773 32.75196,-18.83789 -0.65039,-0.34961 v -5.84961 l -5.27539,3.01953 -0.008,-0.004 5.28516,-3.04102 z m 44.32617,29.89844 -31.21875,18.29883 0.38086,0.22851 v 6.32422 l 21.44531,12.44531 0.0566,-0.0332 0.29688,0.17578 32.75,-18.83594 -0.64649,-0.34961 v -5.84961 l -5.27734,3.01954 -0.01,-0.006 5.28711,-3.03907 z" />
    <path
       id="path39903-2"
       style="fill:#333333;fill-opacity:0.545098;stroke-width:0.62239"
       d="m 448.87758,392.65902 -31.2168,18.29688 0.37891,0.22851 v 6.32422 l 21.44726,12.44531 0.0547,-0.0332 0.29687,0.17773 32.75196,-18.83789 -0.65039,-0.34961 v -5.84961 l -5.27539,3.01953 -0.008,-0.004 5.28516,-3.04102 z m 44.32617,29.89844 -31.21875,18.29883 0.38086,0.22851 v 6.32422 l 21.44531,12.44531 0.0566,-0.0332 0.29688,0.17578 32.75,-18.83594 -0.64649,-0.34961 v -5.84961 l -5.27734,3.01954 -0.01,-0.006 5.28711,-3.03907 z" />
    <path
       id="path39903-4"
       style="fill:#333333;fill-opacity:0.545098;stroke-width:0.62239"
       d="m 535.50537,342.28186 -31.2168,18.29688 0.37891,0.22851 v 6.32422 l 21.44726,12.44531 0.0547,-0.0332 0.29687,0.17773 32.75196,-18.83789 -0.65039,-0.34961 v -5.84961 l -5.27539,3.01953 -0.008,-0.004 5.28516,-3.04102 z m 44.32617,29.89844 -31.21875,18.29883 0.38086,0.22851 v 6.32422 l 21.44531,12.44531 0.0566,-0.0332 0.29688,0.17578 32.75,-18.83594 -0.64649,-0.34961 v -5.84961 l -5.27734,3.01954 -0.01,-0.006 5.28711,-3.03907 z" />
    <path
       style="fill:#000000;fill-opacity:0.545098;stroke-width:0.432382"
       d=""
       id="path40275" />
    <path
       style="fill:#000000;fill-opacity:0.545098;stroke-width:0.432382"
       d=""
       id="path40279" />
    <path
       style="fill:#000000;fill-opacity:0.545098;stroke-width:0.15287"
       d="m 873.32214,38.631299 -4.96289,-4.616414 1.83442,-1.05933 1.83442,-1.05933 3.25225,3.351719 c 1.78874,1.843445 3.25473,3.258797 3.25776,3.145225 0.003,-0.113573 -0.44791,-2.199704 -1.00209,-4.635848 -0.55418,-2.436145 -0.98413,-4.447806 -0.95544,-4.470359 0.0287,-0.02255 0.72685,-0.4347 1.55147,-0.915882 l 1.49931,-0.874876 1.09948,1.03295 c 0.60472,0.568123 2.11666,2.000133 3.35988,3.182245 1.24321,1.182112 2.31882,2.169605 2.39023,2.194428 0.0714,0.02482 -0.20775,-1.110236 -0.62036,-2.522354 -1.56386,-5.352215 -1.83509,-6.34232 -1.75843,-6.418982 0.27642,-0.276413 3.40223,-1.988903 3.47965,-1.906334 0.0524,0.0559 0.7254,2.888976 1.49554,6.295719 0.77014,3.406744 1.43796,6.338291 1.48406,6.51455 0.0706,0.269962 -0.0928,0.419007 -1.03694,0.945652 -0.6164,0.343849 -1.47,0.82928 -1.89689,1.078735 l -0.77615,0.453555 -3.34582,-3.138393 c -1.8402,-1.726115 -3.36943,-3.067571 -3.39828,-2.981012 -0.0288,0.08656 0.39861,2.04101 0.94992,4.343223 0.55131,2.302214 1.00238,4.261866 1.00238,4.354782 0,0.138189 -2.13839,1.473137 -3.45421,2.156388 -0.28927,0.150205 -0.80222,-0.281853 -5.28327,-4.450057 z"
       id="path40301" />
    <path
       style="fill:#000000;fill-opacity:0.545098;stroke-width:0.15287"
       d="m 862.43025,51.19102 c -2.00543,-0.304639 -3.87436,-1.883083 -5.01557,-4.236009 -0.53849,-1.110263 -0.62845,-1.447946 -0.69455,-2.607223 -0.0968,-1.698413 0.18598,-2.719075 1.09594,-3.955169 1.1232,-1.52576 3.47338,-2.978329 5.49165,-3.394208 2.56098,-0.527706 5.16137,0.815655 6.71468,3.468791 2.22816,3.805816 1.19717,7.415725 -2.74804,9.622011 -1.69341,0.94701 -3.36309,1.326784 -4.84411,1.101807 z m 3.41202,-3.488892 c 0.72493,-0.369833 1.32951,-1.069576 1.46769,-1.69871 0.38749,-1.764214 -1.6659,-5.295833 -3.37147,-5.798579 -1.05459,-0.31086 -2.52175,0.278251 -3.13733,1.259738 -0.48792,0.777943 -0.36206,2.221152 0.30898,3.543217 0.57927,1.141247 1.50882,2.277087 2.21691,2.708897 0.6168,0.376136 1.76238,0.369504 2.51522,-0.01456 z"
       id="path40303" />
    <path
       style="fill:#000000;fill-opacity:0.545098;stroke-width:0.15287"
       d="m 853.89456,55.460489 c -0.7654,-1.314604 -2.46819,-4.261755 -6.60464,-11.431153 -0.89655,-1.553918 -1.57393,-2.844023 -1.5053,-2.866901 0.0686,-0.02288 0.83463,-0.454081 1.7022,-0.958227 0.86757,-0.504147 1.62348,-0.916561 1.6798,-0.916475 0.0563,8.5e-5 0.30345,0.361241 0.54918,0.802567 0.24574,0.441327 2.23208,3.898029 4.4141,7.68156 2.18203,3.783531 3.99473,6.92677 4.02823,6.984973 0.0542,0.0942 -0.34455,0.344615 -2.79955,1.758043 l -0.63671,0.366576 z"
       id="path40305" />
    <path
       style="fill:#000000;fill-opacity:0.545098;stroke-width:0.15287"
       d=""
       id="path40307" />
    <path
       style="fill:#000000;fill-opacity:0.545098;stroke-width:0.15287"
       d="m 845.42486,60.423698 c -0.42661,-0.736705 -1.58114,-2.731155 -2.56563,-4.432112 l -1.78997,-3.092651 -0.78299,0.447184 -0.78299,0.447184 -0.66356,-1.164237 c -0.50581,-0.887456 -0.61697,-1.195136 -0.46758,-1.294207 0.10779,-0.07148 0.44639,-0.274502 0.75245,-0.451151 l 0.55648,-0.321181 -0.44659,-0.954323 c -1.41469,-3.023126 -0.12889,-5.172866 4.22051,-7.056306 l 0.75938,-0.328837 0.65466,1.148637 c 0.36007,0.63175 0.65467,1.19695 0.65467,1.256 0,0.05905 -0.38202,0.227784 -0.84893,0.374966 -0.5681,0.179076 -1.07996,0.488963 -1.54729,0.936743 -0.656,0.628561 -0.6918,0.704093 -0.59022,1.245514 0.0595,0.317006 0.20792,0.769359 0.32989,1.005229 l 0.22177,0.428854 0.72057,-0.415068 c 0.3963,-0.228287 0.96133,-0.56132 1.2556,-0.740073 0.29428,-0.178754 0.6092,-0.368502 0.69983,-0.421664 0.13332,-0.0782 1.44035,1.935771 1.44035,2.219399 0,0.04077 -0.56753,0.401813 -1.26118,0.802313 -0.69364,0.400501 -1.28518,0.749092 -1.31453,0.774647 -0.0294,0.02556 0.59908,1.168977 1.3965,2.540937 3.04601,5.240605 3.62501,6.257822 3.62115,6.361822 -0.003,0.08853 -2.96809,1.850401 -3.33484,1.981776 -0.0615,0.02204 -0.4609,-0.562692 -0.88751,-1.299395 z"
       id="path40309" />
    <path
       style="fill:#000000;fill-opacity:0.545098;stroke-width:0.15287"
       d="m 817.79474,91.68988 c 0.52683,-0.873217 10.06353,-15.371224 10.2008,-15.507612 0.13418,-0.133307 1.02466,0.228418 3.65342,1.484065 l 3.47599,1.660337 20.67746,-9.261356 c 11.3726,-5.093746 20.88383,-9.327761 21.13607,-9.408923 0.40715,-0.131008 0.78969,0.0041 3.40919,1.203884 l 2.95059,1.35145 -1.19258,0.552782 c -3.48559,1.615631 -39.57901,18.821298 -39.66869,18.909989 -0.0582,0.05752 1.41199,0.824117 3.26699,1.703549 1.85501,0.87943 3.31282,1.617187 3.23959,1.639457 -0.0732,0.02227 -6.97792,1.314351 -15.34372,2.87129 -8.36581,1.55694 -15.37111,2.868487 -15.56733,2.914552 -0.26423,0.06203 -0.3259,0.0326 -0.23778,-0.113464 z"
       id="path40311" />
    <path
       style="fill:#000000;fill-opacity:0.545098;stroke-width:0.15287"
       d="m 826.82996,69.136372 c -0.90372,-1.576986 -2.35925,-4.10479 -3.2345,-5.617342 -0.87526,-1.512552 -1.57921,-2.758492 -1.56434,-2.768756 0.38553,-0.266033 3.33776,-1.895343 3.43427,-1.895343 0.0751,0 0.32441,0.34501 0.55391,0.766689 0.3678,0.675771 0.7014,0.884412 0.7014,0.438675 0,-0.36813 0.98577,-2.098082 1.49976,-2.631963 0.52847,-0.548926 1.82576,-1.431171 1.91954,-1.305415 0.16382,0.219686 1.79804,3.106942 1.82316,3.221074 0.0173,0.07882 -0.38223,0.311403 -0.88796,0.516847 -0.95877,0.389487 -2.88665,1.752248 -3.2266,2.280797 -0.17587,0.273433 0.0228,0.685349 1.88047,3.898184 1.14242,1.975844 2.10298,3.695631 2.13458,3.821749 0.0392,0.156536 -0.45725,0.520378 -1.56446,1.146525 -0.89205,0.50447 -1.66786,0.934839 -1.72401,0.956372 -0.0562,0.02154 -0.8415,-1.251107 -1.74522,-2.828093 z"
       id="path40313" />
    <path
       style="fill:#000000;fill-opacity:0.545098;stroke-width:0.15287"
       d="m 814.15682,77.97497 c -1.07153,-0.41898 -1.7191,-0.863488 -2.4625,-1.690324 -0.75955,-0.844811 -1.65126,-2.4794 -1.93992,-3.556099 -0.30756,-1.14717 -0.13918,-2.914267 0.38243,-4.013504 1.15174,-2.427162 4.55349,-4.662533 7.09537,-4.662533 2.13096,0 3.71564,1.153995 5.25894,3.829666 l 0.40135,0.695833 -1.33438,0.766604 c -5.17449,2.97275 -6.84575,3.937002 -6.90163,3.981976 -0.14624,0.117694 0.34174,0.766228 0.82643,1.098341 1.10703,0.758552 2.42624,0.711345 4.18642,-0.149809 1.16264,-0.568812 2.56737,-1.917176 3.24121,-3.111158 0.26191,-0.464082 0.52421,-0.843785 0.58289,-0.843785 0.0587,0 0.46859,0.620463 0.91092,1.378807 l 0.80423,1.378808 -0.29756,0.417875 c -1.24696,1.751201 -4.58925,3.92673 -6.97424,4.539613 -1.23239,0.316692 -2.88315,0.290353 -3.77996,-0.06031 z m 1.5085,-7.892128 c 1.24594,-0.719083 2.32541,-1.367302 2.3988,-1.440486 0.22179,-0.221145 -0.47127,-1.025093 -1.17908,-1.367739 -0.47567,-0.230271 -0.80796,-0.292197 -1.18367,-0.220593 -1.5582,0.296964 -2.73897,1.494189 -2.73897,2.777141 0,0.532392 0.25459,1.559102 0.3866,1.559102 0.028,0 1.07037,-0.588341 2.31632,-1.307425 z"
       id="path40315" />
    <path
       style="fill:#000000;fill-opacity:0.545098;stroke-width:0.15287"
       d="m 805.54821,83.945322 c -0.96888,-0.442558 -1.72522,-1.418676 -3.50955,-4.529382 -0.91634,-1.597491 -1.67775,-2.922731 -1.69202,-2.944978 -0.0143,-0.02225 -0.34442,0.13755 -0.73367,0.355105 -0.38925,0.217554 -0.77188,0.355902 -0.8503,0.307438 -0.13149,-0.08126 -1.24013,-2.002958 -1.24013,-2.149612 0,-0.0356 0.31352,-0.248465 0.69671,-0.473032 0.3832,-0.224567 0.6669,-0.485434 0.63045,-0.579706 -0.0364,-0.09427 -0.44977,-0.823659 -0.91849,-1.620861 l -0.85222,-1.449457 0.64217,-0.39928 c 0.35319,-0.219604 1.14015,-0.681295 1.74881,-1.025981 l 1.10664,-0.626701 0.63339,1.099609 c 0.98922,1.71737 1.22358,2.093263 1.30514,2.093263 0.0417,0 0.78197,-0.412749 1.64505,-0.91722 0.86308,-0.50447 1.61142,-0.917219 1.66297,-0.917219 0.0516,0 0.38258,0.49457 0.73561,1.099044 0.74864,1.281839 0.87741,1.059845 -1.34899,2.325599 l -1.40851,0.800772 1.53386,2.664478 c 0.84362,1.465463 1.73651,2.853655 1.98419,3.084871 0.7741,0.722644 1.76552,0.498106 2.98313,-0.675625 l 0.62674,-0.604162 0.65658,1.117612 c 0.36111,0.614687 0.68207,1.164364 0.71323,1.221505 0.0847,0.15535 -1.58988,1.401219 -2.71047,2.016524 -0.95138,0.522397 -2.47753,1.016944 -3.117,1.01006 -0.17151,-0.0018 -0.58701,-0.129045 -0.92332,-0.282664 z"
       id="path40317" />
    <path
       style="fill:#000000;fill-opacity:0.545098;stroke-width:0.15287"
       d="m 790.77758,92.562343 c -1.38542,-0.444587 -2.5478,-1.998813 -2.69308,-3.600904 -0.16159,-1.782112 1.1761,-3.540322 4.35479,-5.72375 0.85683,-0.58855 1.55997,-1.112303 1.56255,-1.163897 0.003,-0.05159 -0.18375,-0.282243 -0.41406,-0.512555 -0.37792,-0.37792 -0.50288,-0.412663 -1.28159,-0.356337 -1.41763,0.102542 -2.72981,0.846692 -4.29638,2.436514 -1.31253,1.332015 -1.33762,1.348408 -1.54575,1.010176 -1.36255,-2.214173 -1.38976,-2.27909 -1.06554,-2.542241 0.1677,-0.136119 0.81749,-0.662582 1.44397,-1.169916 2.28355,-1.849252 5.29072,-3.274998 6.917,-3.279452 1.79323,-0.0049 2.69778,0.693266 4.15882,3.20998 2.44851,4.2177 3.77247,6.581727 3.71661,6.636303 -0.11511,0.112477 -3.26983,1.922658 -3.35073,1.922658 -0.0444,0 -0.21031,-0.24077 -0.36879,-0.535045 -0.15847,-0.294275 -0.3289,-0.533871 -0.37872,-0.532436 -0.0498,0.0014 -0.2598,0.396986 -0.46664,0.879002 -0.47531,1.107687 -1.77344,2.433032 -2.94022,3.001857 -1.06414,0.518786 -2.35028,0.641576 -3.35224,0.320043 z m 3.49315,-3.520326 c 0.85183,-0.355916 1.52158,-0.927894 1.9575,-1.671723 l 0.39407,-0.672438 -0.63138,-1.118604 c -0.34726,-0.615232 -0.69054,-1.179451 -0.76283,-1.253819 -0.12438,-0.127945 -1.58207,0.838123 -2.44801,1.622393 -0.96083,0.870201 -1.17314,1.785096 -0.61187,2.636597 0.47475,0.720232 1.13173,0.863217 2.10252,0.457594 z"
       id="path40319" />
    <path
       style="fill:#000000;fill-opacity:0.545098;stroke-width:0.15287"
       d="m 769.68758,100.69382 c -1.8987,-1.781576 -4.12255,-3.859231 -4.94188,-4.617015 l -1.48969,-1.37779 1.78098,-1.029912 c 0.97954,-0.566452 1.836,-1.029912 1.90324,-1.029912 0.0672,0 0.41919,0.326759 0.78211,0.726132 1.34022,1.474829 5.6653,5.879675 5.71974,5.825233 0.031,-0.03096 -0.41231,-2.119602 -0.98505,-4.641437 -0.57273,-2.521834 -1.03177,-4.591862 -1.02008,-4.600063 0.0117,-0.0082 0.73023,-0.413191 1.59674,-0.899977 l 1.57548,-0.885066 1.63479,1.591133 c 3.08842,3.00594 5.11027,4.886407 5.17943,4.817246 0.0381,-0.03809 -0.25263,-1.159363 -0.64605,-2.491712 -0.39342,-1.33235 -0.97883,-3.315152 -1.30092,-4.406228 -0.32208,-1.091076 -0.57255,-1.995569 -0.55659,-2.009985 0.1676,-0.151416 3.52802,-2.036119 3.56481,-1.999336 0.10565,0.105657 2.96558,12.883898 2.92636,13.075045 -0.0475,0.23162 -3.28541,2.153123 -3.63407,2.156622 -0.12612,0.0012 -0.81403,-0.558151 -1.5287,-1.243149 -0.71466,-0.684998 -1.81533,-1.728643 -2.44592,-2.31921 -0.63058,-0.590567 -1.50597,-1.417365 -1.94531,-1.837329 -0.43933,-0.419963 -0.83155,-0.730799 -0.87161,-0.690745 -0.0401,0.04005 0.40302,2.06201 0.98461,4.493236 0.58158,2.431225 1.0426,4.433829 1.02448,4.450239 -0.0872,0.079 -3.77712,2.20052 -3.81321,2.19246 -0.0228,-0.005 -1.59498,-1.46691 -3.49369,-3.24848 z"
       id="path40321" />
  </g>
</svg>
