<?xml version="1.0" encoding="UTF-8" standalone="no"?>
<!-- Created with Inkscape (http://www.inkscape.org/) -->

<svg
   width="180mm"
   height="180mm"
   viewBox="0 0 180 180"
   version="1.1"
   id="svg14817"
   xml:space="preserve"
   inkscape:export-filename="figura_teste.tiff"
   inkscape:export-xdpi="600"
   inkscape:export-ydpi="600"
   inkscape:version="1.2 (dc2aedaf03, 2022-05-15)"
   sodipodi:docname="Figura_experimento_manuscrito.svg"
   xmlns:inkscape="http://www.inkscape.org/namespaces/inkscape"
   xmlns:sodipodi="http://sodipodi.sourceforge.net/DTD/sodipodi-0.dtd"
   xmlns="http://www.w3.org/2000/svg"
   xmlns:svg="http://www.w3.org/2000/svg"><sodipodi:namedview
     id="namedview14819"
     pagecolor="#ffffff"
     bordercolor="#000000"
     borderopacity="0.25"
     inkscape:showpageshadow="2"
     inkscape:pageopacity="0.0"
     inkscape:pagecheckerboard="0"
     inkscape:deskcolor="#d1d1d1"
     inkscape:document-units="mm"
     showgrid="true"
     inkscape:zoom="0.81764678"
     inkscape:cx="434.78432"
     inkscape:cy="379.13682"
     inkscape:window-width="1600"
     inkscape:window-height="829"
     inkscape:window-x="-8"
     inkscape:window-y="-8"
     inkscape:window-maximized="1"
     inkscape:current-layer="layer1"><inkscape:grid
       type="xygrid"
       id="grid14938"
       spacingx="5.2916668" /></sodipodi:namedview><defs
     id="defs14814"><rect
       x="396.08168"
       y="622.66115"
       width="441.72171"
       height="84.03744"
       id="rect15954" /><rect
       x="58.917185"
       y="474.53254"
       width="53.08377"
       height="48.92088"
       id="rect15428" /><rect
       x="273.82476"
       y="352.23034"
       width="83.115354"
       height="57.482034"
       id="rect15422" /><rect
       x="91.181427"
       y="387.69798"
       width="69.195694"
       height="41.582748"
       id="rect15222" /><rect
       x="569.59344"
       y="90.193271"
       width="196.05024"
       height="65.058178"
       id="rect37072" /><inkscape:perspective
       sodipodi:type="inkscape:persp3d"
       inkscape:vp_x="120.40119 : 206.58469 : 1"
       inkscape:vp_y="-682.46483 : -81.974213 : 0"
       inkscape:vp_z="377.39604 : 412.36033 : 1"
       inkscape:persp3d-origin="224.8559 : 179.56088 : 1"
       id="perspective8504" /><rect
       x="22.483839"
       y="19.024787"
       width="19.88955"
       height="23.348602"
       id="rect501" /><linearGradient
       id="linearGradient11240"
       inkscape:swatch="solid"><stop
         style="stop-color:#000000;stop-opacity:1;"
         offset="0"
         id="stop11238" /></linearGradient><rect
       x="396.08167"
       y="622.66113"
       width="362.37802"
       height="81.935167"
       id="rect15954-6" /></defs><g
     inkscape:label="Camada 1"
     inkscape:groupmode="layer"
     id="layer1"><g
       id="g15154"
       transform="matrix(0.12164426,0,0,0.12164426,-1.3420744,0.20785012)"><g
         id="layer2"
         inkscape:label="Camada 2" /><g
         inkscape:label="Camada 1"
         id="layer1-5"><path
           id="rect1019-7"
           style="fill:#000000;fill-opacity:0.545098;stroke-width:0.299898"
           d="m 185.30369,534.0157 -25.97071,14.99218 -0.008,-0.004 0.008,14.99609 25.95899,14.98047 v 0.0117 l 25.97656,-14.99024 v -14.98437 l 0.0176,-0.01 z m 6.08398,26.46679 -6.08594,3.51367 v -0.002 z m 42.4375,4.53907 -25.97266,14.99218 -0.008,-0.004 0.008,14.99609 25.96094,14.98047 V 610 l 25.97657,-14.99219 v -14.98437 l 0.0176,-0.01 z m 6.08399,26.46875 -6.08594,3.51171 -0.002,-0.002 z" /><path
           style="fill:#ffb380;stroke-width:2.09943"
           d="m 535.91008,353.59819 -7.26203,584.59325"
           id="path225"
           sodipodi:nodetypes="cc" /><path
           style="fill:#ffb380;stroke-width:0.742259"
           d="m 529.5558,355.4137 -0.90775,580.05444"
           id="path227"
           sodipodi:nodetypes="cc" /><path
           style="fill:#00a8ff;fill-opacity:0.833333;stroke-width:0.742259"
           d="m 117.03626,640.94899 44.28964,-66.1135"
           id="path9398"
           sodipodi:nodetypes="cc" /><path
           style="fill:#803300;fill-opacity:0.833333;stroke-width:0.742259"
           d="m 208.18304,508.72199 21.82387,103.02152"
           id="path24898"
           sodipodi:nodetypes="cc" /><path
           id="rect25086"
           style="fill:#3f90f6;fill-opacity:0.564394;stroke-width:0.790464"
           d="M 937.22784,45.944574 1073.7046,126.41574 227.97304,615.30423 91.56511,535.60899 Z"
           sodipodi:nodetypes="ccccc" /><path
           id="rect25086-0"
           style="fill:#3f90f4;fill-opacity:0.454546;stroke-width:0.790464"
           d="M 939.36925,107.30121 1069.1983,184.84886 228.24081,669.41628 87.580187,590.52866 Z"
           sodipodi:nodetypes="ccccc" /><path
           id="rect1019-95-3"
           style="fill:#000000;fill-opacity:0.545098;stroke-width:0.24859"
           d="m 544.86015,331.48331 -21.5275,12.42724 -0.007,-0.003 0.007,12.43048 21.51778,12.41753 v 0.01 l 21.53235,-12.42563 v -12.42076 l 0.0146,-0.008 z m 5.0431,21.93871 -5.04473,2.91253 v -0.002 z m 35.17705,3.7625 -21.52911,12.42724 -0.007,-0.003 0.007,12.43048 21.5194,12.41752 v 0.0114 l 21.53235,-12.42724 V 369.6198 l 0.0146,-0.008 z m 5.04311,21.94033 -5.04472,2.91091 -0.002,-0.002 z" /><path
           id="rect1019-95-7"
           style="fill:#000000;fill-opacity:0.545098;stroke-width:0.24859"
           d="m 451.84391,385.53874 -21.5275,12.42724 -0.007,-0.003 0.007,12.43048 21.51778,12.41753 v 0.01 l 21.53235,-12.42563 V 397.9746 l 0.0146,-0.008 z m 5.0431,21.93871 -5.04473,2.91253 v -0.002 z m 35.17705,3.7625 -21.52911,12.42724 -0.007,-0.003 0.007,12.43048 21.5194,12.41752 v 0.0114 l 21.53235,-12.42724 v -12.42112 l 0.0146,-0.008 z m 5.04311,21.94033 -5.04472,2.91091 -0.002,-0.002 z" /><path
           id="rect1019-95-72"
           style="fill:#000000;fill-opacity:0.545098;stroke-width:0.24859"
           d="m 362.3973,434.74842 -21.5275,12.42724 -0.007,-0.003 0.007,12.43048 21.51778,12.41753 v 0.01 l 21.53235,-12.42563 v -12.42076 l 0.0146,-0.008 z m 5.0431,21.93871 -5.04473,2.91253 v -0.002 z m 35.17705,3.7625 -21.52911,12.42724 -0.007,-0.003 0.007,12.43048 21.5194,12.41752 v 0.0114 l 21.53235,-12.42724 v -12.42112 l 0.0146,-0.008 z m 5.04311,21.94033 -5.04472,2.91091 -0.002,-0.002 z" /><path
           id="rect1019-95-6"
           style="fill:#000000;fill-opacity:0.545098;stroke-width:0.24859"
           d="m 275.38236,483.92062 -21.5275,12.42724 -0.007,-0.003 0.007,12.43048 21.51778,12.41753 v 0.01 l 21.53235,-12.42563 v -12.42076 l 0.0146,-0.008 z m 5.0431,21.93871 -5.04473,2.91253 v -0.002 z m 35.17705,3.7625 -21.52911,12.42724 -0.007,-0.003 0.007,12.43048 21.5194,12.41752 v 0.0114 l 21.53235,-12.42724 v -12.42112 l 0.0146,-0.008 z m 5.04311,21.94033 -5.04472,2.91091 -0.002,-0.002 z" /><path
           id="rect25111"
           style="fill:#3f90f4;fill-opacity:0.412879;stroke-width:0.86112"
           d="m 90.086607,534.69288 136.835143,79.69524 -0.0481,52.68722 -136.787033,-78.88762 z"
           sodipodi:nodetypes="ccccc" /><path
           id="rect25142"
           style="fill:#3e8ff5;fill-opacity:0.627451;stroke-width:0.742259"
           d="m 935.67771,46.838745 138.05229,79.799765 0.1415,60.18581 -137.12133,-81.01166 z"
           sodipodi:nodetypes="ccccc" /><path
           id="rect27036-1-4-8-7"
           style="fill:#008012;fill-opacity:0.606061;stroke-width:0.661798"
           d="M 36.418554,504.04491 884.01777,16.883245 936.45689,46.675275 91.658952,535.81086 Z"
           sodipodi:nodetypes="ccccc" /><path
           id="rect31277"
           style="fill:#138449;fill-opacity:0.85098"
           d="m 36.418554,517.01262 54.375638,31.74449 1e-5,40.54859 -54.375648,-31.42789 z"
           sodipodi:nodetypes="ccccc" /><path
           id="rect31748"
           style="fill:#138449;fill-opacity:0.85098;stroke-width:1.00811"
           d="m 36.418554,504.04491 54.375638,31.31505 v 13.7029 L 36.418554,517.01262 Z"
           sodipodi:nodetypes="ccccc" /><path
           id="rect32876"
           style="fill:#0e8245;fill-opacity:0.784314"
           d="M 281.79163,659.89595 1073.8715,208.12018 v 39.5535 L 281.79163,705.22006 Z"
           sodipodi:nodetypes="ccccc" /><path
           id="rect36428"
           style="fill:#ab4400;fill-opacity:0.545098"
           d="M 36.418554,557.82168 281.79163,699.58132 v 5.63874 L 36.418554,564.13459 Z"
           sodipodi:nodetypes="ccccc" /><path
           id="rect27036-1-4-8-7-6"
           style="fill:#008012;fill-opacity:0.606061;stroke-width:0.661798"
           d="M 226.98076,615.28991 1073.8715,125.31347 v 55.24132 L 281.84856,645.25422 Z"
           sodipodi:nodetypes="ccccc" /><path
           id="rect31748-3"
           style="fill:#138449;fill-opacity:0.85098;stroke-width:1.00811"
           d="m 227.41599,614.878 54.37564,30.37622 v 14.64173 l -54.37564,-32.05024 z"
           sodipodi:nodetypes="ccccc" /><path
           id="rect31277-9"
           style="fill:#168556;fill-opacity:0.917647"
           d="m 227.45354,627.44513 54.37564,31.74449 10e-6,40.54859 -54.37565,-31.42789 z"
           sodipodi:nodetypes="ccccc" /><path
           id="rect37921"
           style="fill:#0e8245;fill-opacity:0.784314"
           d="M 280.00453,642.88625 1073.8715,180.55479 v 27.45756 l -792.07987,451.8836 z"
           sodipodi:nodetypes="ccccc" /><text
           xml:space="preserve"
           style="font-style:normal;font-variant:normal;font-weight:bold;font-stretch:normal;font-size:24px;font-family:sans-serif;-inkscape-font-specification:'sans-serif Bold';text-align:center;text-anchor:middle;fill:#1a1a1a;fill-opacity:0.545098"
           x="685.44354"
           y="476.70956"
           id="text38278"
           transform="rotate(-29.99968)"><tspan
             sodipodi:role="line"
             id="tspan38276"
             x="685.44354"
             y="476.70956"
             style="font-size:24px;fill:#1a1a1a">water flow</tspan></text><text
           xml:space="preserve"
           style="font-style:normal;font-variant:normal;font-weight:bold;font-stretch:normal;font-size:24px;line-height:0.6;font-family:sans-serif;-inkscape-font-specification:'sans-serif Bold';text-align:center;text-anchor:middle;fill:#333333;fill-opacity:0.545098"
           x="486.311"
           y="351.21738"
           id="text38278-5"
           transform="rotate(30)"><tspan
             sodipodi:role="line"
             id="tspan38276-1"
             x="486.311"
             y="351.21738"
             style="font-size:24px;fill:#ffffff">Riffle</tspan></text><text
           xml:space="preserve"
           style="font-style:normal;font-variant:normal;font-weight:bold;font-stretch:normal;font-size:24px;line-height:0.6;font-family:sans-serif;-inkscape-font-specification:'sans-serif Bold';text-align:center;text-anchor:middle;fill:#333333;fill-opacity:0.545098"
           x="584.27393"
           y="179.22002"
           id="text38278-5-3"
           transform="rotate(30)"><tspan
             sodipodi:role="line"
             id="tspan38276-1-2"
             x="584.27393"
             y="179.22002"
             style="font-size:24px;fill:#ffffff">Riffle</tspan></text><text
           xml:space="preserve"
           style="font-style:normal;font-variant:normal;font-weight:bold;font-stretch:normal;font-size:24px;line-height:0.6;font-family:sans-serif;-inkscape-font-specification:'sans-serif Bold';text-align:center;text-anchor:middle;fill:#333333;fill-opacity:0.545098"
           x="689.961"
           y="4.7730947"
           id="text38278-5-3-5"
           transform="rotate(30)"><tspan
             sodipodi:role="line"
             id="tspan38276-1-2-6"
             x="689.961"
             y="4.7730947"
             style="font-size:24px;fill:#ffffff">Riffle</tspan></text><text
           xml:space="preserve"
           style="font-style:normal;font-variant:normal;font-weight:bold;font-stretch:normal;font-size:24px;line-height:0.6;font-family:sans-serif;-inkscape-font-specification:'sans-serif Bold';text-align:center;text-anchor:middle;fill:#333333;fill-opacity:0.545098"
           x="779.64673"
           y="-150.71736"
           id="text38278-5-3-5-8"
           transform="rotate(30)"><tspan
             sodipodi:role="line"
             id="tspan38276-1-2-6-7"
             x="779.64673"
             y="-150.71736"
             style="font-size:24px;fill:#ffffff">Riffle</tspan></text><text
           xml:space="preserve"
           style="font-style:normal;font-variant:normal;font-weight:bold;font-stretch:normal;font-size:24px;line-height:0.6;font-family:sans-serif;-inkscape-font-specification:'sans-serif Bold';text-align:center;text-anchor:middle;fill:#333333;fill-opacity:0.545098"
           x="865.0199"
           y="-296.86618"
           id="text38278-5-3-5-8-4"
           transform="rotate(30)"><tspan
             sodipodi:role="line"
             id="tspan38276-1-2-6-7-4"
             x="865.0199"
             y="-296.86618"
             style="font-size:24px;fill:#ffffff">Riffle</tspan></text><text
           xml:space="preserve"
           style="font-style:normal;font-variant:normal;font-weight:bold;font-stretch:normal;font-size:24px;font-family:sans-serif;-inkscape-font-specification:'sans-serif Bold';text-align:center;text-anchor:middle;fill:#333333;fill-opacity:0.545098"
           x="538.68231"
           y="265.78168"
           id="text38278-9"
           transform="rotate(30)"><tspan
             sodipodi:role="line"
             id="tspan38276-6"
             x="538.68231"
             y="265.78168"
             style="font-size:24px;fill:#ffffff">Pool</tspan></text><text
           xml:space="preserve"
           style="font-style:normal;font-variant:normal;font-weight:bold;font-stretch:normal;font-size:24px;font-family:sans-serif;-inkscape-font-specification:'sans-serif Bold';text-align:center;text-anchor:middle;fill:#333333;fill-opacity:0.545098"
           x="633.08813"
           y="90.537453"
           id="text38278-9-6"
           transform="rotate(30)"><tspan
             sodipodi:role="line"
             id="tspan38276-6-8"
             x="633.08813"
             y="90.537453"
             style="font-size:24px;fill:#ffffff">Pool</tspan></text><text
           xml:space="preserve"
           style="font-style:normal;font-variant:normal;font-weight:bold;font-stretch:normal;font-size:24px;font-family:sans-serif;-inkscape-font-specification:'sans-serif Bold';text-align:center;text-anchor:middle;fill:#333333;fill-opacity:0.545098"
           x="736.25745"
           y="-74.036003"
           id="text38278-9-6-0"
           transform="rotate(30)"><tspan
             sodipodi:role="line"
             id="tspan38276-6-8-7"
             x="736.25745"
             y="-74.036003"
             style="font-size:24px;fill:#ffffff">Pool</tspan></text><text
           xml:space="preserve"
           style="font-style:normal;font-variant:normal;font-weight:bold;font-stretch:normal;font-size:24px;font-family:sans-serif;-inkscape-font-specification:'sans-serif Bold';text-align:center;text-anchor:middle;fill:#333333;fill-opacity:0.545098"
           x="821.23218"
           y="-223.66505"
           id="text38278-9-6-0-2"
           transform="rotate(30)"><tspan
             sodipodi:role="line"
             id="tspan38276-6-8-7-5"
             x="821.23218"
             y="-223.66505"
             style="font-size:24px;fill:#ffffff">Pool</tspan></text><text
           xml:space="preserve"
           style="font-style:normal;font-variant:normal;font-weight:bold;font-stretch:normal;font-size:24px;font-family:sans-serif;-inkscape-font-specification:'sans-serif Bold';text-align:center;text-anchor:middle;fill:#333333;fill-opacity:0.545098"
           x="903.10803"
           y="-360.30563"
           id="text38278-9-6-0-2-4"
           transform="rotate(30)"><tspan
             sodipodi:role="line"
             id="tspan38276-6-8-7-5-0"
             x="903.10803"
             y="-360.30563"
             style="font-size:24px;fill:#ffffff">Pool</tspan></text><path
           id="rect38626-0-4-2"
           style="fill:#000000;fill-opacity:0.545098;stroke-width:2.95847"
           d="m 877.29468,60.362445 -42.17643,18.873314 -7.06967,-3.37379 -10.56321,16.113429 31.8741,-5.950077 -6.9297,-3.305581 41.03101,-19.513447 z"
           sodipodi:nodetypes="cccccccc" /><path
           style="fill:#000000;fill-opacity:0.545098;stroke-width:0.432382"
           d=""
           id="path40275" /><path
           style="fill:#000000;fill-opacity:0.545098;stroke-width:0.432382"
           d=""
           id="path40279" /><path
           style="fill:#000000;fill-opacity:0.545098;stroke-width:0.15287"
           d="m 873.32214,38.631299 -4.96289,-4.616414 1.83442,-1.05933 1.83442,-1.05933 3.25225,3.351719 c 1.78874,1.843445 3.25473,3.258797 3.25776,3.145225 0.003,-0.113573 -0.44791,-2.199704 -1.00209,-4.635848 -0.55418,-2.436145 -0.98413,-4.447806 -0.95544,-4.470359 0.0287,-0.02255 0.72685,-0.4347 1.55147,-0.915882 l 1.49931,-0.874876 1.09948,1.03295 c 0.60472,0.568123 2.11666,2.000133 3.35988,3.182245 1.24321,1.182112 2.31882,2.169605 2.39023,2.194428 0.0714,0.02482 -0.20775,-1.110236 -0.62036,-2.522354 -1.56386,-5.352215 -1.83509,-6.34232 -1.75843,-6.418982 0.27642,-0.276413 3.40223,-1.988903 3.47965,-1.906334 0.0524,0.0559 0.7254,2.888976 1.49554,6.295719 0.77014,3.406744 1.43796,6.338291 1.48406,6.51455 0.0706,0.269962 -0.0928,0.419007 -1.03694,0.945652 -0.6164,0.343849 -1.47,0.82928 -1.89689,1.078735 l -0.77615,0.453555 -3.34582,-3.138393 c -1.8402,-1.726115 -3.36943,-3.067571 -3.39828,-2.981012 -0.0288,0.08656 0.39861,2.04101 0.94992,4.343223 0.55131,2.302214 1.00238,4.261866 1.00238,4.354782 0,0.138189 -2.13839,1.473137 -3.45421,2.156388 -0.28927,0.150205 -0.80222,-0.281853 -5.28327,-4.450057 z"
           id="path40301" /><path
           style="fill:#000000;fill-opacity:0.545098;stroke-width:0.15287"
           d="m 862.43025,51.19102 c -2.00543,-0.304639 -3.87436,-1.883083 -5.01557,-4.236009 -0.53849,-1.110263 -0.62845,-1.447946 -0.69455,-2.607223 -0.0968,-1.698413 0.18598,-2.719075 1.09594,-3.955169 1.1232,-1.52576 3.47338,-2.978329 5.49165,-3.394208 2.56098,-0.527706 5.16137,0.815655 6.71468,3.468791 2.22816,3.805816 1.19717,7.415725 -2.74804,9.622011 -1.69341,0.94701 -3.36309,1.326784 -4.84411,1.101807 z m 3.41202,-3.488892 c 0.72493,-0.369833 1.32951,-1.069576 1.46769,-1.69871 0.38749,-1.764214 -1.6659,-5.295833 -3.37147,-5.798579 -1.05459,-0.31086 -2.52175,0.278251 -3.13733,1.259738 -0.48792,0.777943 -0.36206,2.221152 0.30898,3.543217 0.57927,1.141247 1.50882,2.277087 2.21691,2.708897 0.6168,0.376136 1.76238,0.369504 2.51522,-0.01456 z"
           id="path40303" /><path
           style="fill:#000000;fill-opacity:0.545098;stroke-width:0.15287"
           d="m 853.89456,55.460489 c -0.7654,-1.314604 -2.46819,-4.261755 -6.60464,-11.431153 -0.89655,-1.553918 -1.57393,-2.844023 -1.5053,-2.866901 0.0686,-0.02288 0.83463,-0.454081 1.7022,-0.958227 0.86757,-0.504147 1.62348,-0.916561 1.6798,-0.916475 0.0563,8.5e-5 0.30345,0.361241 0.54918,0.802567 0.24574,0.441327 2.23208,3.898029 4.4141,7.68156 2.18203,3.783531 3.99473,6.92677 4.02823,6.984973 0.0542,0.0942 -0.34455,0.344615 -2.79955,1.758043 l -0.63671,0.366576 z"
           id="path40305" /><path
           style="fill:#000000;fill-opacity:0.545098;stroke-width:0.15287"
           d=""
           id="path40307" /><path
           style="fill:#000000;fill-opacity:0.545098;stroke-width:0.15287"
           d="m 845.42486,60.423698 c -0.42661,-0.736705 -1.58114,-2.731155 -2.56563,-4.432112 l -1.78997,-3.092651 -0.78299,0.447184 -0.78299,0.447184 -0.66356,-1.164237 c -0.50581,-0.887456 -0.61697,-1.195136 -0.46758,-1.294207 0.10779,-0.07148 0.44639,-0.274502 0.75245,-0.451151 l 0.55648,-0.321181 -0.44659,-0.954323 c -1.41469,-3.023126 -0.12889,-5.172866 4.22051,-7.056306 l 0.75938,-0.328837 0.65466,1.148637 c 0.36007,0.63175 0.65467,1.19695 0.65467,1.256 0,0.05905 -0.38202,0.227784 -0.84893,0.374966 -0.5681,0.179076 -1.07996,0.488963 -1.54729,0.936743 -0.656,0.628561 -0.6918,0.704093 -0.59022,1.245514 0.0595,0.317006 0.20792,0.769359 0.32989,1.005229 l 0.22177,0.428854 0.72057,-0.415068 c 0.3963,-0.228287 0.96133,-0.56132 1.2556,-0.740073 0.29428,-0.178754 0.6092,-0.368502 0.69983,-0.421664 0.13332,-0.0782 1.44035,1.935771 1.44035,2.219399 0,0.04077 -0.56753,0.401813 -1.26118,0.802313 -0.69364,0.400501 -1.28518,0.749092 -1.31453,0.774647 -0.0294,0.02556 0.59908,1.168977 1.3965,2.540937 3.04601,5.240605 3.62501,6.257822 3.62115,6.361822 -0.003,0.08853 -2.96809,1.850401 -3.33484,1.981776 -0.0615,0.02204 -0.4609,-0.562692 -0.88751,-1.299395 z"
           id="path40309" /><path
           style="fill:#000000;fill-opacity:0.545098;stroke-width:0.15287"
           d="m 817.79474,91.68988 c 0.52683,-0.873217 10.06353,-15.371224 10.2008,-15.507612 0.13418,-0.133307 1.02466,0.228418 3.65342,1.484065 l 3.47599,1.660337 20.67746,-9.261356 c 11.3726,-5.093746 20.88383,-9.327761 21.13607,-9.408923 0.40715,-0.131008 0.78969,0.0041 3.40919,1.203884 l 2.95059,1.35145 -1.19258,0.552782 c -3.48559,1.615631 -39.57901,18.821298 -39.66869,18.909989 -0.0582,0.05752 1.41199,0.824117 3.26699,1.703549 1.85501,0.87943 3.31282,1.617187 3.23959,1.639457 -0.0732,0.02227 -6.97792,1.314351 -15.34372,2.87129 -8.36581,1.55694 -15.37111,2.868487 -15.56733,2.914552 -0.26423,0.06203 -0.3259,0.0326 -0.23778,-0.113464 z"
           id="path40311" /><path
           style="fill:#000000;fill-opacity:0.545098;stroke-width:0.15287"
           d="m 826.82996,69.136372 c -0.90372,-1.576986 -2.35925,-4.10479 -3.2345,-5.617342 -0.87526,-1.512552 -1.57921,-2.758492 -1.56434,-2.768756 0.38553,-0.266033 3.33776,-1.895343 3.43427,-1.895343 0.0751,0 0.32441,0.34501 0.55391,0.766689 0.3678,0.675771 0.7014,0.884412 0.7014,0.438675 0,-0.36813 0.98577,-2.098082 1.49976,-2.631963 0.52847,-0.548926 1.82576,-1.431171 1.91954,-1.305415 0.16382,0.219686 1.79804,3.106942 1.82316,3.221074 0.0173,0.07882 -0.38223,0.311403 -0.88796,0.516847 -0.95877,0.389487 -2.88665,1.752248 -3.2266,2.280797 -0.17587,0.273433 0.0228,0.685349 1.88047,3.898184 1.14242,1.975844 2.10298,3.695631 2.13458,3.821749 0.0392,0.156536 -0.45725,0.520378 -1.56446,1.146525 -0.89205,0.50447 -1.66786,0.934839 -1.72401,0.956372 -0.0562,0.02154 -0.8415,-1.251107 -1.74522,-2.828093 z"
           id="path40313" /><path
           style="fill:#000000;fill-opacity:0.545098;stroke-width:0.15287"
           d="m 814.15682,77.97497 c -1.07153,-0.41898 -1.7191,-0.863488 -2.4625,-1.690324 -0.75955,-0.844811 -1.65126,-2.4794 -1.93992,-3.556099 -0.30756,-1.14717 -0.13918,-2.914267 0.38243,-4.013504 1.15174,-2.427162 4.55349,-4.662533 7.09537,-4.662533 2.13096,0 3.71564,1.153995 5.25894,3.829666 l 0.40135,0.695833 -1.33438,0.766604 c -5.17449,2.97275 -6.84575,3.937002 -6.90163,3.981976 -0.14624,0.117694 0.34174,0.766228 0.82643,1.098341 1.10703,0.758552 2.42624,0.711345 4.18642,-0.149809 1.16264,-0.568812 2.56737,-1.917176 3.24121,-3.111158 0.26191,-0.464082 0.52421,-0.843785 0.58289,-0.843785 0.0587,0 0.46859,0.620463 0.91092,1.378807 l 0.80423,1.378808 -0.29756,0.417875 c -1.24696,1.751201 -4.58925,3.92673 -6.97424,4.539613 -1.23239,0.316692 -2.88315,0.290353 -3.77996,-0.06031 z m 1.5085,-7.892128 c 1.24594,-0.719083 2.32541,-1.367302 2.3988,-1.440486 0.22179,-0.221145 -0.47127,-1.025093 -1.17908,-1.367739 -0.47567,-0.230271 -0.80796,-0.292197 -1.18367,-0.220593 -1.5582,0.296964 -2.73897,1.494189 -2.73897,2.777141 0,0.532392 0.25459,1.559102 0.3866,1.559102 0.028,0 1.07037,-0.588341 2.31632,-1.307425 z"
           id="path40315" /><path
           style="fill:#000000;fill-opacity:0.545098;stroke-width:0.15287"
           d="m 805.54821,83.945322 c -0.96888,-0.442558 -1.72522,-1.418676 -3.50955,-4.529382 -0.91634,-1.597491 -1.67775,-2.922731 -1.69202,-2.944978 -0.0143,-0.02225 -0.34442,0.13755 -0.73367,0.355105 -0.38925,0.217554 -0.77188,0.355902 -0.8503,0.307438 -0.13149,-0.08126 -1.24013,-2.002958 -1.24013,-2.149612 0,-0.0356 0.31352,-0.248465 0.69671,-0.473032 0.3832,-0.224567 0.6669,-0.485434 0.63045,-0.579706 -0.0364,-0.09427 -0.44977,-0.823659 -0.91849,-1.620861 l -0.85222,-1.449457 0.64217,-0.39928 c 0.35319,-0.219604 1.14015,-0.681295 1.74881,-1.025981 l 1.10664,-0.626701 0.63339,1.099609 c 0.98922,1.71737 1.22358,2.093263 1.30514,2.093263 0.0417,0 0.78197,-0.412749 1.64505,-0.91722 0.86308,-0.50447 1.61142,-0.917219 1.66297,-0.917219 0.0516,0 0.38258,0.49457 0.73561,1.099044 0.74864,1.281839 0.87741,1.059845 -1.34899,2.325599 l -1.40851,0.800772 1.53386,2.664478 c 0.84362,1.465463 1.73651,2.853655 1.98419,3.084871 0.7741,0.722644 1.76552,0.498106 2.98313,-0.675625 l 0.62674,-0.604162 0.65658,1.117612 c 0.36111,0.614687 0.68207,1.164364 0.71323,1.221505 0.0847,0.15535 -1.58988,1.401219 -2.71047,2.016524 -0.95138,0.522397 -2.47753,1.016944 -3.117,1.01006 -0.17151,-0.0018 -0.58701,-0.129045 -0.92332,-0.282664 z"
           id="path40317" /><path
           style="fill:#000000;fill-opacity:0.545098;stroke-width:0.15287"
           d="m 790.77758,92.562343 c -1.38542,-0.444587 -2.5478,-1.998813 -2.69308,-3.600904 -0.16159,-1.782112 1.1761,-3.540322 4.35479,-5.72375 0.85683,-0.58855 1.55997,-1.112303 1.56255,-1.163897 0.003,-0.05159 -0.18375,-0.282243 -0.41406,-0.512555 -0.37792,-0.37792 -0.50288,-0.412663 -1.28159,-0.356337 -1.41763,0.102542 -2.72981,0.846692 -4.29638,2.436514 -1.31253,1.332015 -1.33762,1.348408 -1.54575,1.010176 -1.36255,-2.214173 -1.38976,-2.27909 -1.06554,-2.542241 0.1677,-0.136119 0.81749,-0.662582 1.44397,-1.169916 2.28355,-1.849252 5.29072,-3.274998 6.917,-3.279452 1.79323,-0.0049 2.69778,0.693266 4.15882,3.20998 2.44851,4.2177 3.77247,6.581727 3.71661,6.636303 -0.11511,0.112477 -3.26983,1.922658 -3.35073,1.922658 -0.0444,0 -0.21031,-0.24077 -0.36879,-0.535045 -0.15847,-0.294275 -0.3289,-0.533871 -0.37872,-0.532436 -0.0498,0.0014 -0.2598,0.396986 -0.46664,0.879002 -0.47531,1.107687 -1.77344,2.433032 -2.94022,3.001857 -1.06414,0.518786 -2.35028,0.641576 -3.35224,0.320043 z m 3.49315,-3.520326 c 0.85183,-0.355916 1.52158,-0.927894 1.9575,-1.671723 l 0.39407,-0.672438 -0.63138,-1.118604 c -0.34726,-0.615232 -0.69054,-1.179451 -0.76283,-1.253819 -0.12438,-0.127945 -1.58207,0.838123 -2.44801,1.622393 -0.96083,0.870201 -1.17314,1.785096 -0.61187,2.636597 0.47475,0.720232 1.13173,0.863217 2.10252,0.457594 z"
           id="path40319" /><path
           style="fill:#000000;fill-opacity:0.545098;stroke-width:0.15287"
           d="m 769.68758,100.69382 c -1.8987,-1.781576 -4.12255,-3.859231 -4.94188,-4.617015 l -1.48969,-1.37779 1.78098,-1.029912 c 0.97954,-0.566452 1.836,-1.029912 1.90324,-1.029912 0.0672,0 0.41919,0.326759 0.78211,0.726132 1.34022,1.474829 5.6653,5.879675 5.71974,5.825233 0.031,-0.03096 -0.41231,-2.119602 -0.98505,-4.641437 -0.57273,-2.521834 -1.03177,-4.591862 -1.02008,-4.600063 0.0117,-0.0082 0.73023,-0.413191 1.59674,-0.899977 l 1.57548,-0.885066 1.63479,1.591133 c 3.08842,3.00594 5.11027,4.886407 5.17943,4.817246 0.0381,-0.03809 -0.25263,-1.159363 -0.64605,-2.491712 -0.39342,-1.33235 -0.97883,-3.315152 -1.30092,-4.406228 -0.32208,-1.091076 -0.57255,-1.995569 -0.55659,-2.009985 0.1676,-0.151416 3.52802,-2.036119 3.56481,-1.999336 0.10565,0.105657 2.96558,12.883898 2.92636,13.075045 -0.0475,0.23162 -3.28541,2.153123 -3.63407,2.156622 -0.12612,0.0012 -0.81403,-0.558151 -1.5287,-1.243149 -0.71466,-0.684998 -1.81533,-1.728643 -2.44592,-2.31921 -0.63058,-0.590567 -1.50597,-1.417365 -1.94531,-1.837329 -0.43933,-0.419963 -0.83155,-0.730799 -0.87161,-0.690745 -0.0401,0.04005 0.40302,2.06201 0.98461,4.493236 0.58158,2.431225 1.0426,4.433829 1.02448,4.450239 -0.0872,0.079 -3.77712,2.20052 -3.81321,2.19246 -0.0228,-0.005 -1.59498,-1.46691 -3.49369,-3.24848 z"
           id="path40321" /><path
           id="rect1019-9"
           style="fill:#000000;fill-opacity:0.545098;stroke-width:0.248204"
           d="m 613.83836,297.11335 -21.49406,12.40793 -0.007,-0.003 0.007,12.41117 21.48436,12.39824 v 0.01 l 21.4989,-12.40632 V 309.5299 l 0.0146,-0.008 z m 5.03526,21.90463 -5.03688,2.908 v -0.002 z m 35.12242,3.75665 -21.49567,12.40793 -0.007,-0.003 0.007,12.41117 21.48597,12.39824 V 360 l 21.49891,-12.40794 v -12.40147 l 0.0146,-0.008 z m 5.03527,21.90625 -5.03688,2.90639 -0.002,-0.002 z" /><path
           id="rect1019-95"
           style="fill:#000000;fill-opacity:0.545098;stroke-width:0.24859"
           d="m 689.88012,253.95811 -21.5275,12.42724 -0.007,-0.003 0.007,12.43048 21.51778,12.41753 v 0.01 l 21.53235,-12.42563 v -12.42076 l 0.0146,-0.008 z m 5.0431,21.93871 -5.04473,2.91253 v -0.002 z m 35.17705,3.7625 -21.52911,12.42724 -0.007,-0.003 0.007,12.43048 21.5194,12.41752 v 0.0114 l 21.53235,-12.42724 V 292.0946 l 0.0146,-0.008 z m 5.04311,21.94033 -5.04472,2.91091 -0.002,-0.002 z" /><path
           id="rect1019-95-2"
           style="fill:#000000;fill-opacity:0.545098;stroke-width:0.24859"
           d="m 773.24044,204.03309 -21.5275,12.42724 -0.007,-0.003 0.007,12.43048 21.51778,12.41753 v 0.01 l 21.53235,-12.42563 v -12.42076 l 0.0146,-0.008 z m 5.0431,21.93871 -5.04473,2.91253 v -0.002 z m 35.17705,3.7625 -21.52911,12.42724 -0.007,-0.003 0.007,12.43048 21.5194,12.41752 v 0.0114 l 21.53235,-12.42724 v -12.42112 l 0.0146,-0.008 z m 5.04311,21.94033 -5.04472,2.91091 -0.002,-0.002 z" /><path
           id="rect1019-95-9"
           style="fill:#000000;fill-opacity:0.545098;stroke-width:0.24859"
           d="m 846.78857,161.37085 -21.5275,12.42724 -0.007,-0.003 0.007,12.43048 21.51778,12.41753 v 0.01 l 21.53235,-12.42563 v -12.42076 l 0.0146,-0.008 z m 5.0431,21.93871 -5.04473,2.91253 v -0.002 z m 35.17705,3.7625 -21.52911,12.42724 -0.007,-0.003 0.007,12.43048 21.5194,12.41752 v 0.0114 l 21.53235,-12.42724 v -12.42112 l 0.0146,-0.008 z m 5.04311,21.94033 -5.04472,2.91091 -0.002,-0.002 z" /><path
           id="rect1019-95-8"
           style="fill:#000000;fill-opacity:0.545098;stroke-width:0.24859"
           d="m 915.67246,123.02645 -21.5275,12.42724 -0.007,-0.003 0.007,12.43048 21.51778,12.41753 v 0.01 l 21.53235,-12.42563 v -12.42076 l 0.0146,-0.008 z m 5.0431,21.93871 -5.04473,2.91253 v -0.002 z m 35.17705,3.7625 -21.52911,12.42724 -0.007,-0.003 0.007,12.43048 21.5194,12.41752 v 0.0114 l 21.53235,-12.42724 v -12.42112 l 0.0146,-0.008 z m 5.04311,21.94033 -5.04472,2.91091 -0.002,-0.002 z" /></g></g><text
       xml:space="preserve"
       transform="matrix(0.26458333,0,0,0.26458333,9.917911,-93.189115)"
       id="text15220"
       style="font-weight:bold;font-size:26.6667px;font-family:sans-serif;-inkscape-font-specification:'sans-serif Bold';text-align:center;white-space:pre;shape-inside:url(#rect15222);fill:#0e8245;fill-opacity:0.784314;stroke:#414141;stroke-width:0.737008;stroke-opacity:0.786145"><tspan
         x="109.62693"
         y="412.0261"
         id="tspan16170"><tspan
           style="fill:#000000"
           id="tspan16168">a)</tspan></tspan></text><text
       xml:space="preserve"
       transform="matrix(0.26458333,0,0,0.26458333,-7.8862596,-19.127363)"
       id="text15420"
       style="font-weight:bold;font-size:26.6667px;font-family:sans-serif;-inkscape-font-specification:'sans-serif Bold';text-align:center;white-space:pre;shape-inside:url(#rect15422);fill:#000000;fill-opacity:0.784314;stroke:#414141;stroke-width:0.737008;stroke-opacity:0.786145"><tspan
         x="298.8128"
         y="376.55931"
         id="tspan16172">b)</tspan></text><text
       xml:space="preserve"
       transform="matrix(0.26458333,0,0,0.26458333,-14.880794,-15.686908)"
       id="text15426"
       style="font-weight:bold;font-size:26.6667px;font-family:sans-serif;-inkscape-font-specification:'sans-serif Bold';text-align:center;white-space:pre;shape-inside:url(#rect15428);fill:#000000;fill-opacity:0.784314;stroke:#414141;stroke-width:0.737008;stroke-opacity:0.786145"><tspan
         x="70.367819"
         y="498.86204"
         id="tspan16174">c)</tspan></text><g
       inkscape:label="Camada 1"
       id="layer1-6"
       transform="matrix(0.4962813,0,0,0.4962813,70.470588,53.719107)"><path
         id="rect2082"
         style="fill:#666666;fill-opacity:0.545098;stroke:#000000;stroke-width:0.264583;stroke-opacity:1"
         d="M 22.283429,67.554917 68.116847,41.186277 113.95622,67.585447 68.111161,94.170421 Z"
         sodipodi:nodetypes="ccccc" /><path
         id="rect2082-4"
         style="fill:#666666;fill-opacity:0.545098;stroke-width:0.264583"
         d="M 22.256328,88.597532 68.089746,62.228892 113.92912,88.628062 68.08406,115.21304 Z"
         sodipodi:nodetypes="ccccc" /><path
         id="rect2107"
         style="fill:#333333;fill-opacity:0.545098;stroke:#000000;stroke-width:0.264583;stroke-opacity:1"
         d="m 22.283966,67.588026 45.817967,26.58239 V 115.21304 L 22.292641,88.720956 Z"
         sodipodi:nodetypes="ccccc" /><path
         id="rect2188"
         style="fill:#4d4d4d;fill-opacity:0.545098;stroke:#000000;stroke-width:0.264583;stroke-opacity:1"
         d="M 68.092724,94.323376 113.92912,67.678505 V 88.720966 L 68.234224,115.44237 Z"
         sodipodi:nodetypes="ccccc" /><path
         id="rect2798"
         style="fill:#f6f6f6;fill-opacity:0.545098;stroke:#000000;stroke-width:0.178081;stroke-opacity:1"
         d="m 33.771433,64.088569 -6.827919,3.416817 0.03499,0.01631 v 1.059228 h 3.77e-4 l -3.77e-4,3.21e-4 0.06939,0.03237 6.766858,3.183451 v -0.03109 l 0.04374,0.02017 3.77e-4,0.01028 0.01056,-0.0051 0.01207,0.0051 3.825154,-1.917514 2.555015,-1.273324 v -0.0077 l 0.03469,-0.01734 -0.03469,-0.01824 v -1.158093 l -0.01207,0.0064 z" /><path
         id="rect2798-5"
         style="fill:#f6f6f6;fill-opacity:0.545098;stroke:#000000;stroke-width:0.178081;stroke-opacity:1"
         d="m 57.195899,51.282411 -6.827919,3.416817 0.03499,0.01631 v 1.059228 h 3.77e-4 l -3.77e-4,3.21e-4 0.06939,0.03237 6.766858,3.183451 v -0.03109 l 0.04374,0.02017 3.77e-4,0.01028 0.01056,-0.0051 0.01207,0.0051 3.825154,-1.917514 2.555015,-1.273324 v -0.0077 l 0.03469,-0.01734 -0.03469,-0.01824 v -1.158093 l -0.01207,0.0064 z" /><path
         id="rect2798-3"
         style="fill:#f6f6f6;fill-opacity:0.545098;stroke:#000000;stroke-width:0.178081;stroke-opacity:1"
         d="m 68.76816,44.941769 -6.827919,3.416817 0.03499,0.01631 v 1.059228 h 3.77e-4 l -3.77e-4,3.21e-4 0.06939,0.03237 6.766858,3.183451 v -0.03109 l 0.04374,0.02017 3.77e-4,0.01028 0.01056,-0.0051 0.01207,0.0051 3.825154,-1.917514 2.555015,-1.273324 v -0.0077 l 0.03469,-0.01734 -0.03469,-0.01824 v -1.158093 l -0.01207,0.0064 z" /><path
         id="rect2798-38"
         style="fill:#f6f6f6;fill-opacity:0.545098;stroke:#000000;stroke-width:0.178081;stroke-opacity:1"
         d="m 45.385395,57.937816 -6.82791,3.41682 0.035,0.0163 v 1.05923 h 3.7e-4 l -3.7e-4,3.2e-4 0.0694,0.0324 6.76685,3.18345 v -0.0311 l 0.0437,0.0202 3.8e-4,0.0103 0.0106,-0.005 0.0121,0.005 3.82515,-1.91751 2.55502,-1.27333 v -0.008 l 0.0347,-0.0173 -0.0347,-0.0182 v -1.15809 l -0.0121,0.006 z" /><path
         id="rect2798-8"
         style="fill:#f6f6f6;fill-opacity:0.545098;stroke:#000000;stroke-width:0.178081;stroke-opacity:1"
         d="m 43.891252,69.743769 -6.827919,3.416817 0.03499,0.01631 v 1.059228 h 3.77e-4 l -3.77e-4,3.21e-4 0.06939,0.03237 6.766858,3.183451 v -0.03109 l 0.04374,0.02017 3.77e-4,0.01028 0.01056,-0.0051 0.01207,0.0051 3.825154,-1.917514 2.555015,-1.273324 v -0.0077 l 0.03469,-0.01734 -0.03469,-0.01824 v -1.158092 l -0.01207,0.0064 z" /><path
         id="rect2798-0"
         style="fill:#f6f6f6;fill-opacity:0.545098;stroke:#000000;stroke-width:0.178081;stroke-opacity:1"
         d="m 55.026693,63.652639 -6.827919,3.416817 0.03499,0.01631 v 1.059228 h 3.77e-4 l -3.77e-4,3.21e-4 0.06939,0.03237 6.766858,3.183451 v -0.03109 l 0.04374,0.02017 3.77e-4,0.01028 0.01056,-0.0051 0.01207,0.0051 3.825154,-1.917514 2.555015,-1.273324 v -0.0077 l 0.03469,-0.01734 -0.03469,-0.01824 v -1.158093 l -0.01207,0.0064 z" /><path
         id="rect2798-7"
         style="fill:#f6f6f6;fill-opacity:0.545098;stroke:#000000;stroke-width:0.178081;stroke-opacity:1"
         d="m 66.392835,57.342609 -6.827919,3.416817 0.03499,0.01631 v 1.059228 h 3.77e-4 l -3.77e-4,3.21e-4 0.06939,0.03237 6.766858,3.183451 v -0.03109 l 0.04374,0.02017 3.77e-4,0.01028 0.01056,-0.0051 0.01207,0.0051 3.825154,-1.917514 2.555015,-1.273324 v -0.0077 l 0.03469,-0.01734 -0.03469,-0.01824 v -1.158093 l -0.01207,0.0064 z" /><path
         id="rect2798-4"
         style="fill:#f6f6f6;fill-opacity:0.545098;stroke:#000000;stroke-width:0.178081;stroke-opacity:1"
         d="m 77.811418,50.192667 -6.827919,3.416817 0.03499,0.01631 v 1.059228 h 3.77e-4 l -3.77e-4,3.21e-4 0.06939,0.03237 6.766858,3.183451 v -0.03109 l 0.04374,0.02017 3.77e-4,0.01028 0.01056,-0.0051 0.01207,0.0051 3.825154,-1.917514 2.555015,-1.273324 v -0.0077 l 0.03469,-0.01734 -0.03469,-0.01824 v -1.158093 l -0.01207,0.0064 z" /><path
         id="rect2798-4-7"
         style="fill:#f6f6f6;fill-opacity:0.545098;stroke:#000000;stroke-width:0.178081;stroke-opacity:1"
         d="m 53.791215,75.151719 -6.827919,3.416817 0.03499,0.01631 v 1.059228 h 3.77e-4 l -3.77e-4,3.21e-4 0.06939,0.03237 6.766858,3.183451 v -0.03109 l 0.04374,0.02017 3.77e-4,0.01028 0.01056,-0.0051 0.01207,0.0051 3.825154,-1.917514 2.555015,-1.273324 v -0.0077 l 0.03469,-0.01734 -0.03469,-0.01824 v -1.158093 l -0.01207,0.0064 z" /><path
         id="rect2798-4-3"
         style="fill:#f6f6f6;fill-opacity:0.545098;stroke:#000000;stroke-width:0.178081;stroke-opacity:1"
         d="m 65.690745,80.996776 -6.827919,3.416817 0.03499,0.01631 v 1.059228 h 3.77e-4 l -3.77e-4,3.21e-4 0.06939,0.03237 6.766858,3.183451 v -0.03109 l 0.04374,0.02017 3.77e-4,0.01028 0.01056,-0.0051 0.01207,0.0051 3.825154,-1.917514 2.555015,-1.273324 v -0.0077 l 0.03469,-0.01734 -0.03469,-0.01824 v -1.158093 l -0.01207,0.0064 z" /><path
         id="rect2798-4-4"
         style="fill:#f6f6f6;fill-opacity:0.545098;stroke:#000000;stroke-width:0.178081;stroke-opacity:1"
         d="m 65.566812,69.198291 -6.827919,3.416817 0.03499,0.01631 v 1.059228 h 3.77e-4 l -3.77e-4,3.21e-4 0.06939,0.03237 6.766858,3.183451 v -0.03109 l 0.04374,0.02017 3.77e-4,0.01028 0.01056,-0.0051 0.01207,0.0051 3.825154,-1.917514 2.555015,-1.273324 v -0.0077 l 0.03469,-0.01734 -0.03469,-0.01824 v -1.158093 l -0.01207,0.0064 z" /><path
         id="rect2798-4-8"
         style="fill:#f6f6f6;fill-opacity:0.545098;stroke:#000000;stroke-width:0.178081;stroke-opacity:1"
         d="m 76.829895,74.747178 -6.82792,3.416817 0.035,0.01631 v 1.059228 h 3.7e-4 l -3.7e-4,3.21e-4 0.0694,0.03237 6.76686,3.183449 v -0.0311 l 0.0437,0.0202 3.7e-4,0.0103 0.0106,-0.005 0.0121,0.005 3.82516,-1.91751 2.55501,-1.273326 v -0.0077 l 0.0347,-0.01734 -0.0347,-0.01824 v -1.158093 l -0.0121,0.0064 z" /><path
         id="rect2798-4-0"
         style="fill:#f6f6f6;fill-opacity:0.545098;stroke:#000000;stroke-width:0.178081;stroke-opacity:1"
         d="m 76.885651,62.96311 -6.827919,3.416817 0.03499,0.01631 v 1.059228 h 3.77e-4 l -3.77e-4,3.21e-4 0.06939,0.03237 6.766858,3.183451 v -0.03109 l 0.04374,0.02017 3.77e-4,0.01028 0.01056,-0.0051 0.01207,0.0051 3.825154,-1.917514 2.555015,-1.273324 v -0.0077 l 0.03469,-0.01734 -0.03469,-0.01824 v -1.158093 l -0.01207,0.0064 z" /><path
         id="rect2798-4-73"
         style="fill:#f6f6f6;fill-opacity:0.545098;stroke:#000000;stroke-width:0.178081;stroke-opacity:1"
         d="m 87.976084,55.979237 -6.827919,3.416817 0.03499,0.01631 v 1.059228 h 3.77e-4 l -3.77e-4,3.21e-4 0.06939,0.03237 6.766858,3.183451 v -0.03109 l 0.04374,0.02017 3.77e-4,0.01028 0.01056,-0.0051 0.01207,0.0051 3.825154,-1.917514 2.555015,-1.273324 v -0.0077 l 0.03469,-0.01734 -0.03469,-0.01824 v -1.158093 l -0.01207,0.0064 z" /><path
         id="rect2798-4-6"
         style="fill:#f6f6f6;fill-opacity:0.545098;stroke:#000000;stroke-width:0.178081;stroke-opacity:1"
         d="m 98.354987,61.918085 -6.827919,3.416817 0.03499,0.01631 v 1.059228 h 3.77e-4 l -3.77e-4,3.21e-4 0.06939,0.03237 6.766858,3.183451 v -0.03109 l 0.04374,0.02017 3.77e-4,0.01028 0.01056,-0.0051 0.01207,0.0051 3.825147,-1.917514 2.55502,-1.273324 v -0.0077 l 0.0347,-0.01734 -0.0347,-0.01824 v -1.158093 l -0.0121,0.0064 z" /><path
         id="rect2798-4-6-8"
         style="fill:#f6f6f6;fill-opacity:0.545098;stroke:#000000;stroke-width:0.178081;stroke-opacity:1"
         d="m 87.247715,68.557744 -6.827919,3.416817 0.03499,0.01631 v 1.059228 h 3.77e-4 l -3.77e-4,3.21e-4 0.06939,0.03237 6.766858,3.183451 v -0.03109 l 0.04374,0.02017 3.77e-4,0.01028 0.01056,-0.0051 0.01207,0.0051 3.825151,-1.917514 2.55502,-1.273324 v -0.0077 l 0.0347,-0.01734 -0.0347,-0.01824 V 71.87339 l -0.0121,0.0064 z" /><path
         id="path20112-1"
         style="fill:#aa4400;fill-opacity:0.875;stroke:#160a03;stroke-width:0.264583;stroke-opacity:1"
         d="m 33.815435,64.322619 -6.092135,3.20342 z m 0.657841,0.37207 -6.092135,3.20342 z m 0.778767,0.41496 -6.092138,3.20342 z m 0.7152,0.42891 -6.092136,3.20342 z m 0.7152,0.40049 -6.092134,3.20343 z m 0.65784,0.37156 -6.092133,3.20342 z m 0.77876,0.41496 -6.092646,3.20342 z m 0.71469,0.42891 -6.092135,3.20343 z m 0.77256,0.28629 -6.092132,3.20342 z" /><path
         id="path20112-6"
         style="fill:#aa4400;fill-opacity:0.875;stroke:#160a03;stroke-width:0.264583;stroke-opacity:1"
         d="m 57.516977,51.464213 -6.092135,3.20342 z m 0.657841,0.37207 -6.092135,3.20342 z m 0.778767,0.41496 -6.092138,3.20342 z m 0.7152,0.42891 -6.092136,3.20342 z m 0.7152,0.40049 -6.092134,3.20343 z m 0.65784,0.37156 -6.092133,3.20342 z m 0.77876,0.41496 -6.092646,3.20342 z m 0.71469,0.42891 -6.092135,3.20343 z m 0.77256,0.28629 -6.092132,3.20342 z" /><path
         id="path20112-9"
         style="fill:#aa4400;fill-opacity:0.875;stroke:#160a03;stroke-width:0.264583;stroke-opacity:1"
         d="M 54.987135,63.849101 48.895,67.052521 Z m 0.657841,0.37207 -6.092135,3.20342 z m 0.778767,0.41496 -6.092138,3.20342 z m 0.7152,0.42891 -6.092136,3.20342 z m 0.7152,0.40049 -6.092134,3.20343 z m 0.65784,0.37156 -6.092133,3.20342 z m 0.77876,0.41496 -6.092646,3.20342 z m 0.71469,0.42891 -6.092135,3.20343 z m 0.77256,0.28629 -6.092132,3.20342 z" /><path
         id="path20112-4"
         style="fill:#aa4400;fill-opacity:0.875;stroke:#160a03;stroke-width:0.264583;stroke-opacity:1"
         d="m 77.436651,50.577915 -6.092135,3.20342 z m 0.657841,0.37207 -6.092135,3.20342 z m 0.778767,0.41496 -6.092138,3.20342 z m 0.7152,0.42891 -6.092136,3.20342 z m 0.7152,0.40049 -6.092134,3.20343 z m 0.65784,0.37156 -6.092133,3.20342 z m 0.77876,0.41496 -6.092646,3.20342 z m 0.71469,0.42891 -6.092135,3.20343 z m 0.77256,0.28629 -6.092132,3.20342 z" /><path
         id="path20112-4-4"
         style="fill:#aa4400;fill-opacity:0.875;stroke:#160a03;stroke-width:0.264583;stroke-opacity:1"
         d="m 76.75021,63.162661 -6.092135,3.20342 z m 0.657841,0.37207 -6.092135,3.20342 z m 0.778767,0.41496 -6.092138,3.20342 z m 0.7152,0.42891 -6.092136,3.20342 z m 0.7152,0.40049 -6.092134,3.20343 z m 0.65784,0.37156 -6.092133,3.20342 z m 0.77876,0.41496 -6.092646,3.20342 z m 0.71469,0.42891 -6.092135,3.20343 z m 0.77256,0.28629 -6.092132,3.20342 z" /><path
         id="path20112-7"
         style="fill:#aa4400;fill-opacity:0.875;stroke:#160a03;stroke-width:0.264583;stroke-opacity:1"
         d="m 53.773788,75.560612 -6.092135,3.20342 z m 0.657841,0.37207 -6.092135,3.20342 z m 0.778767,0.41496 -6.092138,3.20342 z m 0.7152,0.42891 -6.092136,3.20342 z m 0.7152,0.40049 -6.092134,3.20343 z m 0.65784,0.37156 -6.092133,3.20342 z m 0.77876,0.41496 -6.092646,3.20342 z m 0.71469,0.42891 -6.092135,3.20343 z m 0.77256,0.28629 -6.092132,3.20342 z" /><path
         id="path20112-90"
         style="fill:#aa4400;fill-opacity:0.875;stroke:#160a03;stroke-width:0.264583;stroke-opacity:1"
         d="m 76.871064,75.104397 -6.092135,3.20342 z m 0.657841,0.37207 -6.092135,3.20342 z m 0.778767,0.41496 -6.092138,3.20342 z m 0.7152,0.42891 -6.092136,3.20342 z m 0.7152,0.40049 -6.092134,3.20343 z m 0.65784,0.37156 -6.092133,3.20342 z m 0.77876,0.41496 -6.092646,3.20342 z m 0.71469,0.42891 -6.092135,3.20343 z m 0.77256,0.28629 -6.092132,3.20342 z" /><path
         id="path20112-70"
         style="fill:#aa4400;fill-opacity:0.875;stroke:#160a03;stroke-width:0.264583;stroke-opacity:1"
         d="m 98.500391,62.419722 -6.092135,3.20342 z m 0.657841,0.37207 -6.092135,3.20342 z m 0.778767,0.41496 -6.092138,3.20342 z m 0.715201,0.42891 -6.092137,3.20342 z m 0.7152,0.40049 -6.092135,3.20343 z m 0.65784,0.37156 -6.092134,3.20342 z m 0.77876,0.41496 -6.092647,3.20342 z m 0.71469,0.42891 -6.092136,3.20343 z m 0.77256,0.28629 -6.092133,3.20342 z" /><path
         style="fill:none;fill-opacity:0.875;stroke:#7c3911;stroke-width:0.965;stroke-dasharray:none;stroke-dashoffset:0;stroke-opacity:1"
         d="M 24.542463,67.963056 C 66.93776,93.006797 68.23269,92.545204 68.234224,92.542354"
         id="path21251"
         sodipodi:nodetypes="cc" /><path
         style="fill:none;fill-opacity:0.875;stroke:#7c3911;stroke-width:0.965;stroke-dasharray:none;stroke-dashoffset:0;stroke-opacity:1"
         d="M 45.709169,55.879424 C 88.104466,80.923165 89.818133,80.030392 89.819667,80.027542"
         id="path21251-5"
         sodipodi:nodetypes="cc" /><path
         style="fill:none;fill-opacity:0.875;stroke:#7c3911;stroke-width:0.792883;stroke-dasharray:none;stroke-dashoffset:0;stroke-opacity:1"
         d="m 68.379754,43.036914 c 38.523496,21.926161 43.338886,24.673238 43.409516,24.41167"
         id="path21251-2"
         sodipodi:nodetypes="cc" /><path
         style="fill:none;fill-opacity:0.875;stroke:#7c3911;stroke-width:0.964999;stroke-dasharray:none;stroke-dashoffset:0;stroke-opacity:1"
         d="M 68.092724,92.669491 111.54661,67.385593 v 0"
         id="path25405" /></g><g
       inkscape:label="Camada 1"
       id="layer1-6-6"
       transform="matrix(0.50755504,0,0,0.50755504,119.03812,55.060884)"><path
         id="rect2082-3"
         style="fill:#666666;fill-opacity:0.545098;stroke:#000000;stroke-width:0.264583;stroke-opacity:1"
         d="M 22.283429,67.554917 68.116847,41.186277 113.95622,67.585447 68.111161,94.170421 Z"
         sodipodi:nodetypes="ccccc" /><path
         id="rect2082-4-5"
         style="fill:#666666;fill-opacity:0.545098;stroke-width:0.264583"
         d="M 22.256328,88.597532 68.089746,62.228892 113.92912,88.628062 68.08406,115.21304 Z"
         sodipodi:nodetypes="ccccc" /><path
         id="rect2107-6"
         style="fill:#333333;fill-opacity:0.545098;stroke:#000000;stroke-width:0.264583;stroke-opacity:1"
         d="m 22.283966,67.588026 45.817967,26.58239 V 115.21304 L 22.292641,88.720956 Z"
         sodipodi:nodetypes="ccccc" /><path
         id="rect2188-0"
         style="fill:#4d4d4d;fill-opacity:0.545098;stroke:#000000;stroke-width:0.264583;stroke-opacity:1"
         d="M 68.092724,94.323376 113.92912,67.678505 V 88.720966 L 68.234224,115.44237 Z"
         sodipodi:nodetypes="ccccc" /><path
         id="rect2798-1"
         style="fill:#f6f6f6;fill-opacity:0.545098;stroke:#000000;stroke-width:0.178081;stroke-opacity:1"
         d="m 33.771433,64.088569 -6.827919,3.416817 0.03499,0.01631 v 1.059228 h 3.77e-4 l -3.77e-4,3.21e-4 0.06939,0.03237 6.766858,3.183451 v -0.03109 l 0.04374,0.02017 3.77e-4,0.01028 0.01056,-0.0051 0.01207,0.0051 3.825154,-1.917514 2.555015,-1.273324 v -0.0077 l 0.03469,-0.01734 -0.03469,-0.01824 v -1.158093 l -0.01207,0.0064 z" /><path
         id="rect2798-5-5"
         style="fill:#f6f6f6;fill-opacity:0.545098;stroke:#000000;stroke-width:0.178081;stroke-opacity:1"
         d="m 57.195899,51.282411 -6.827919,3.416817 0.03499,0.01631 v 1.059228 h 3.77e-4 l -3.77e-4,3.21e-4 0.06939,0.03237 6.766858,3.183451 v -0.03109 l 0.04374,0.02017 3.77e-4,0.01028 0.01056,-0.0051 0.01207,0.0051 3.825154,-1.917514 2.555015,-1.273324 v -0.0077 l 0.03469,-0.01734 -0.03469,-0.01824 v -1.158093 l -0.01207,0.0064 z" /><path
         id="rect2798-3-4"
         style="fill:#f6f6f6;fill-opacity:0.545098;stroke:#000000;stroke-width:0.178081;stroke-opacity:1"
         d="m 68.76816,44.941769 -6.827919,3.416817 0.03499,0.01631 v 1.059228 h 3.77e-4 l -3.77e-4,3.21e-4 0.06939,0.03237 6.766858,3.183451 v -0.03109 l 0.04374,0.02017 3.77e-4,0.01028 0.01056,-0.0051 0.01207,0.0051 3.825154,-1.917514 2.555015,-1.273324 v -0.0077 l 0.03469,-0.01734 -0.03469,-0.01824 v -1.158093 l -0.01207,0.0064 z" /><path
         id="rect2798-38-3"
         style="fill:#f6f6f6;fill-opacity:0.545098;stroke:#000000;stroke-width:0.178081;stroke-opacity:1"
         d="m 45.385395,57.937816 -6.82791,3.41682 0.035,0.0163 v 1.05923 h 3.7e-4 l -3.7e-4,3.2e-4 0.0694,0.0324 6.76685,3.18345 v -0.0311 l 0.0437,0.0202 3.8e-4,0.0103 0.0106,-0.005 0.0121,0.005 3.82515,-1.91751 2.55502,-1.27333 v -0.008 l 0.0347,-0.0173 -0.0347,-0.0182 v -1.15809 l -0.0121,0.006 z" /><path
         id="rect2798-8-4"
         style="fill:#f6f6f6;fill-opacity:0.545098;stroke:#000000;stroke-width:0.178081;stroke-opacity:1"
         d="m 43.891252,69.743769 -6.827919,3.416817 0.03499,0.01631 v 1.059228 h 3.77e-4 l -3.77e-4,3.21e-4 0.06939,0.03237 6.766858,3.183451 v -0.03109 l 0.04374,0.02017 3.77e-4,0.01028 0.01056,-0.0051 0.01207,0.0051 3.825154,-1.917514 2.555015,-1.273324 v -0.0077 l 0.03469,-0.01734 -0.03469,-0.01824 v -1.158092 l -0.01207,0.0064 z" /><path
         id="rect2798-0-9"
         style="fill:#f6f6f6;fill-opacity:0.545098;stroke:#000000;stroke-width:0.178081;stroke-opacity:1"
         d="m 55.026693,63.652639 -6.827919,3.416817 0.03499,0.01631 v 1.059228 h 3.77e-4 l -3.77e-4,3.21e-4 0.06939,0.03237 6.766858,3.183451 v -0.03109 l 0.04374,0.02017 3.77e-4,0.01028 0.01056,-0.0051 0.01207,0.0051 3.825154,-1.917514 2.555015,-1.273324 v -0.0077 l 0.03469,-0.01734 -0.03469,-0.01824 v -1.158093 l -0.01207,0.0064 z" /><path
         id="rect2798-7-8"
         style="fill:#f6f6f6;fill-opacity:0.545098;stroke:#000000;stroke-width:0.178081;stroke-opacity:1"
         d="m 66.392835,57.342609 -6.827919,3.416817 0.03499,0.01631 v 1.059228 h 3.77e-4 l -3.77e-4,3.21e-4 0.06939,0.03237 6.766858,3.183451 v -0.03109 l 0.04374,0.02017 3.77e-4,0.01028 0.01056,-0.0051 0.01207,0.0051 3.825154,-1.917514 2.555015,-1.273324 v -0.0077 l 0.03469,-0.01734 -0.03469,-0.01824 v -1.158093 l -0.01207,0.0064 z" /><path
         id="rect2798-4-75"
         style="fill:#f6f6f6;fill-opacity:0.545098;stroke:#000000;stroke-width:0.178081;stroke-opacity:1"
         d="m 77.811418,50.192667 -6.827919,3.416817 0.03499,0.01631 v 1.059228 h 3.77e-4 l -3.77e-4,3.21e-4 0.06939,0.03237 6.766858,3.183451 v -0.03109 l 0.04374,0.02017 3.77e-4,0.01028 0.01056,-0.0051 0.01207,0.0051 3.825154,-1.917514 2.555015,-1.273324 v -0.0077 l 0.03469,-0.01734 -0.03469,-0.01824 v -1.158093 l -0.01207,0.0064 z" /><path
         id="rect2798-4-7-7"
         style="fill:#f6f6f6;fill-opacity:0.545098;stroke:#000000;stroke-width:0.178081;stroke-opacity:1"
         d="m 53.791215,75.151719 -6.827919,3.416817 0.03499,0.01631 v 1.059228 h 3.77e-4 l -3.77e-4,3.21e-4 0.06939,0.03237 6.766858,3.183451 v -0.03109 l 0.04374,0.02017 3.77e-4,0.01028 0.01056,-0.0051 0.01207,0.0051 3.825154,-1.917514 2.555015,-1.273324 v -0.0077 l 0.03469,-0.01734 -0.03469,-0.01824 v -1.158093 l -0.01207,0.0064 z" /><path
         id="rect2798-4-3-1"
         style="fill:#f6f6f6;fill-opacity:0.545098;stroke:#000000;stroke-width:0.178081;stroke-opacity:1"
         d="m 65.690745,80.996776 -6.827919,3.416817 0.03499,0.01631 v 1.059228 h 3.77e-4 l -3.77e-4,3.21e-4 0.06939,0.03237 6.766858,3.183451 v -0.03109 l 0.04374,0.02017 3.77e-4,0.01028 0.01056,-0.0051 0.01207,0.0051 3.825154,-1.917514 2.555015,-1.273324 v -0.0077 l 0.03469,-0.01734 -0.03469,-0.01824 v -1.158093 l -0.01207,0.0064 z" /><path
         id="rect2798-4-4-5"
         style="fill:#f6f6f6;fill-opacity:0.545098;stroke:#000000;stroke-width:0.178081;stroke-opacity:1"
         d="m 65.566812,69.198291 -6.827919,3.416817 0.03499,0.01631 v 1.059228 h 3.77e-4 l -3.77e-4,3.21e-4 0.06939,0.03237 6.766858,3.183451 v -0.03109 l 0.04374,0.02017 3.77e-4,0.01028 0.01056,-0.0051 0.01207,0.0051 3.825154,-1.917514 2.555015,-1.273324 v -0.0077 l 0.03469,-0.01734 -0.03469,-0.01824 v -1.158093 l -0.01207,0.0064 z" /><path
         id="rect2798-4-8-6"
         style="fill:#f6f6f6;fill-opacity:0.545098;stroke:#000000;stroke-width:0.178081;stroke-opacity:1"
         d="m 76.829895,74.747178 -6.82792,3.416817 0.035,0.01631 v 1.059228 h 3.7e-4 l -3.7e-4,3.21e-4 0.0694,0.03237 6.76686,3.183449 v -0.0311 l 0.0437,0.0202 3.7e-4,0.0103 0.0106,-0.005 0.0121,0.005 3.82516,-1.91751 2.55501,-1.273326 v -0.0077 l 0.0347,-0.01734 -0.0347,-0.01824 v -1.158093 l -0.0121,0.0064 z" /><path
         id="rect2798-4-0-8"
         style="fill:#f6f6f6;fill-opacity:0.545098;stroke:#000000;stroke-width:0.178081;stroke-opacity:1"
         d="m 76.885651,62.96311 -6.827919,3.416817 0.03499,0.01631 v 1.059228 h 3.77e-4 l -3.77e-4,3.21e-4 0.06939,0.03237 6.766858,3.183451 v -0.03109 l 0.04374,0.02017 3.77e-4,0.01028 0.01056,-0.0051 0.01207,0.0051 3.825154,-1.917514 2.555015,-1.273324 v -0.0077 l 0.03469,-0.01734 -0.03469,-0.01824 v -1.158093 l -0.01207,0.0064 z" /><path
         id="rect2798-4-73-8"
         style="fill:#f6f6f6;fill-opacity:0.545098;stroke:#000000;stroke-width:0.178081;stroke-opacity:1"
         d="m 87.976084,55.979237 -6.827919,3.416817 0.03499,0.01631 v 1.059228 h 3.77e-4 l -3.77e-4,3.21e-4 0.06939,0.03237 6.766858,3.183451 v -0.03109 l 0.04374,0.02017 3.77e-4,0.01028 0.01056,-0.0051 0.01207,0.0051 3.825154,-1.917514 2.555015,-1.273324 v -0.0077 l 0.03469,-0.01734 -0.03469,-0.01824 v -1.158093 l -0.01207,0.0064 z" /><path
         id="rect2798-4-6-4"
         style="fill:#f6f6f6;fill-opacity:0.545098;stroke:#000000;stroke-width:0.178081;stroke-opacity:1"
         d="m 98.354987,61.918085 -6.827919,3.416817 0.03499,0.01631 v 1.059228 h 3.77e-4 l -3.77e-4,3.21e-4 0.06939,0.03237 6.766858,3.183451 v -0.03109 l 0.04374,0.02017 3.77e-4,0.01028 0.01056,-0.0051 0.01207,0.0051 3.825147,-1.917514 2.55502,-1.273324 v -0.0077 l 0.0347,-0.01734 -0.0347,-0.01824 v -1.158093 l -0.0121,0.0064 z" /><path
         id="rect2798-4-6-8-3"
         style="fill:#f6f6f6;fill-opacity:0.545098;stroke:#000000;stroke-width:0.178081;stroke-opacity:1"
         d="m 87.247715,68.557744 -6.827919,3.416817 0.03499,0.01631 v 1.059228 h 3.77e-4 l -3.77e-4,3.21e-4 0.06939,0.03237 6.766858,3.183451 v -0.03109 l 0.04374,0.02017 3.77e-4,0.01028 0.01056,-0.0051 0.01207,0.0051 3.825151,-1.917514 2.55502,-1.273324 v -0.0077 l 0.0347,-0.01734 -0.0347,-0.01824 V 71.87339 l -0.0121,0.0064 z" /><path
         id="path20112-1-2"
         style="fill:#aa4400;fill-opacity:0.875;stroke:#160a03;stroke-width:0.264583;stroke-opacity:1"
         d="m 33.815435,64.322619 -6.092135,3.20342 z m 0.657841,0.37207 -6.092135,3.20342 z m 0.778767,0.41496 -6.092138,3.20342 z m 0.7152,0.42891 -6.092136,3.20342 z m 0.7152,0.40049 -6.092134,3.20343 z m 0.65784,0.37156 -6.092133,3.20342 z m 0.77876,0.41496 -6.092646,3.20342 z m 0.71469,0.42891 -6.092135,3.20343 z m 0.77256,0.28629 -6.092132,3.20342 z" /><path
         id="path20112-6-3"
         style="fill:#aa4400;fill-opacity:0.875;stroke:#160a03;stroke-width:0.264583;stroke-opacity:1"
         d="m 57.516977,51.464213 -6.092135,3.20342 z m 0.657841,0.37207 -6.092135,3.20342 z m 0.778767,0.41496 -6.092138,3.20342 z m 0.7152,0.42891 -6.092136,3.20342 z m 0.7152,0.40049 -6.092134,3.20343 z m 0.65784,0.37156 -6.092133,3.20342 z m 0.77876,0.41496 -6.092646,3.20342 z m 0.71469,0.42891 -6.092135,3.20343 z m 0.77256,0.28629 -6.092132,3.20342 z" /><path
         id="path20112-9-3"
         style="fill:#aa4400;fill-opacity:0.875;stroke:#160a03;stroke-width:0.264583;stroke-opacity:1"
         d="M 54.987135,63.849101 48.895,67.052521 Z m 0.657841,0.37207 -6.092135,3.20342 z m 0.778767,0.41496 -6.092138,3.20342 z m 0.7152,0.42891 -6.092136,3.20342 z m 0.7152,0.40049 -6.092134,3.20343 z m 0.65784,0.37156 -6.092133,3.20342 z m 0.77876,0.41496 -6.092646,3.20342 z m 0.71469,0.42891 -6.092135,3.20343 z m 0.77256,0.28629 -6.092132,3.20342 z" /><path
         id="path20112-4-1"
         style="fill:#aa4400;fill-opacity:0.875;stroke:#160a03;stroke-width:0.264583;stroke-opacity:1"
         d="m 77.436651,50.577915 -6.092135,3.20342 z m 0.657841,0.37207 -6.092135,3.20342 z m 0.778767,0.41496 -6.092138,3.20342 z m 0.7152,0.42891 -6.092136,3.20342 z m 0.7152,0.40049 -6.092134,3.20343 z m 0.65784,0.37156 -6.092133,3.20342 z m 0.77876,0.41496 -6.092646,3.20342 z m 0.71469,0.42891 -6.092135,3.20343 z m 0.77256,0.28629 -6.092132,3.20342 z" /><path
         id="path20112-4-4-9"
         style="fill:#aa4400;fill-opacity:0.875;stroke:#160a03;stroke-width:0.264583;stroke-opacity:1"
         d="m 76.75021,63.162661 -6.092135,3.20342 z m 0.657841,0.37207 -6.092135,3.20342 z m 0.778767,0.41496 -6.092138,3.20342 z m 0.7152,0.42891 -6.092136,3.20342 z m 0.7152,0.40049 -6.092134,3.20343 z m 0.65784,0.37156 -6.092133,3.20342 z m 0.77876,0.41496 -6.092646,3.20342 z m 0.71469,0.42891 -6.092135,3.20343 z m 0.77256,0.28629 -6.092132,3.20342 z" /><path
         id="path20112-7-9"
         style="fill:#aa4400;fill-opacity:0.875;stroke:#160a03;stroke-width:0.264583;stroke-opacity:1"
         d="m 53.773788,75.560612 -6.092135,3.20342 z m 0.657841,0.37207 -6.092135,3.20342 z m 0.778767,0.41496 -6.092138,3.20342 z m 0.7152,0.42891 -6.092136,3.20342 z m 0.7152,0.40049 -6.092134,3.20343 z m 0.65784,0.37156 -6.092133,3.20342 z m 0.77876,0.41496 -6.092646,3.20342 z m 0.71469,0.42891 -6.092135,3.20343 z m 0.77256,0.28629 -6.092132,3.20342 z" /><path
         id="path20112-90-0"
         style="fill:#aa4400;fill-opacity:0.875;stroke:#160a03;stroke-width:0.264583;stroke-opacity:1"
         d="m 76.871064,75.104397 -6.092135,3.20342 z m 0.657841,0.37207 -6.092135,3.20342 z m 0.778767,0.41496 -6.092138,3.20342 z m 0.7152,0.42891 -6.092136,3.20342 z m 0.7152,0.40049 -6.092134,3.20343 z m 0.65784,0.37156 -6.092133,3.20342 z m 0.77876,0.41496 -6.092646,3.20342 z m 0.71469,0.42891 -6.092135,3.20343 z m 0.77256,0.28629 -6.092132,3.20342 z" /><path
         id="path20112-70-2"
         style="fill:#aa4400;fill-opacity:0.875;stroke:#160a03;stroke-width:0.264583;stroke-opacity:1"
         d="m 98.500391,62.419722 -6.092135,3.20342 z m 0.657841,0.37207 -6.092135,3.20342 z m 0.778767,0.41496 -6.092138,3.20342 z m 0.715201,0.42891 -6.092137,3.20342 z m 0.7152,0.40049 -6.092135,3.20343 z m 0.65784,0.37156 -6.092134,3.20342 z m 0.77876,0.41496 -6.092647,3.20342 z m 0.71469,0.42891 -6.092136,3.20343 z m 0.77256,0.28629 -6.092133,3.20342 z" /><path
         style="fill:none;fill-opacity:0.875;stroke:#7c3911;stroke-width:0.965;stroke-dasharray:none;stroke-dashoffset:0;stroke-opacity:1"
         d="M 24.542463,67.963056 C 66.93776,93.006797 68.23269,92.545204 68.234224,92.542354"
         id="path21251-56"
         sodipodi:nodetypes="cc" /><path
         style="fill:none;fill-opacity:0.875;stroke:#7c3911;stroke-width:0.965;stroke-dasharray:none;stroke-dashoffset:0;stroke-opacity:1"
         d="M 45.709169,55.879424 C 88.104466,80.923165 89.818133,80.030392 89.819667,80.027542"
         id="path21251-5-2"
         sodipodi:nodetypes="cc" /><path
         style="fill:none;fill-opacity:0.875;stroke:#7c3911;stroke-width:0.792883;stroke-dasharray:none;stroke-dashoffset:0;stroke-opacity:1"
         d="m 68.379754,43.036914 c 38.523496,21.926161 43.338886,24.673238 43.409516,24.41167"
         id="path21251-2-4"
         sodipodi:nodetypes="cc" /><path
         style="fill:none;fill-opacity:0.875;stroke:#7c3911;stroke-width:0.964999;stroke-dasharray:none;stroke-dashoffset:0;stroke-opacity:1"
         d="M 68.092724,92.669491 111.54661,67.385593 v 0"
         id="path25405-1" /></g><g
       inkscape:label="Camada 1"
       id="layer1-0"
       transform="matrix(0.85885124,0,0,0.85885124,-28.025749,69.951232)"><path
         id="rect28779-2"
         style="fill:#cccccc;fill-opacity:0.875;stroke:#150904;stroke-width:1.12946;stroke-opacity:1"
         d="m 43.258162,68.400203 5.928326,3.472991 -0.161668,30.548086 -5.701086,-3.716119 z"
         sodipodi:nodetypes="ccccc" /><path
         id="rect28781-0"
         style="fill:#999999;fill-opacity:0.875;stroke:#150904;stroke-width:1.12946;stroke-opacity:1"
         d="M 70.620322,52.30818 76.281175,55.280965 49.13231,70.868907 43.792402,67.55493 Z"
         sodipodi:nodetypes="ccccc" /><path
         id="rect28779-9-9"
         style="fill:#cccccc;fill-opacity:0.875;stroke:#150904;stroke-width:1.12946;stroke-opacity:1"
         d="m 71.155805,52.776844 4.825293,2.485278 0.300077,31.090173 -5.615145,-3.088225 z"
         sodipodi:nodetypes="ccccc" /><path
         id="rect30936-4"
         style="fill:#b3b3b3;fill-opacity:0.87451;stroke:#150904;stroke-width:1.12946;stroke-opacity:1"
         d="m 43.792402,98.653491 26.827783,-15.670383 5.66099,3.369187 -26.833712,15.783855 z"
         sodipodi:nodetypes="ccccc" /><path
         id="rect31129-5"
         style="fill:#cccccc;fill-opacity:0.87451;stroke:#150904;stroke-width:1.12946;stroke-opacity:1"
         d="M 50.122156,71.320506 76.8552,56.23277 77.00912,86.896205 50.122159,102.47737 Z"
         sodipodi:nodetypes="ccccc" /><path
         id="rect584"
         style="fill:#a5a5a5;fill-opacity:1;stroke:#414141;stroke-width:0.228234;stroke-dasharray:none;stroke-opacity:0.786145"
         d="m 51.739717,72.553459 23.455491,-12.741223 0.06454,0.989972 -23.522443,12.980741 z"
         sodipodi:nodetypes="ccccc" /><path
         id="rect584-1"
         style="fill:#a5a5a5;fill-opacity:1;stroke:#414141;stroke-width:0.228234;stroke-dasharray:none;stroke-opacity:0.786145"
         d="M 51.858532,75.131552 75.314023,62.390329 75.378563,63.380301 51.85612,76.361042 Z"
         sodipodi:nodetypes="ccccc" /><path
         id="rect584-8"
         style="fill:#a5a5a5;fill-opacity:1;stroke:#414141;stroke-width:0.228234;stroke-dasharray:none;stroke-opacity:0.786145"
         d="M 51.940574,77.843531 75.396066,65.102307 75.460606,66.09228 51.938163,79.07302 Z"
         sodipodi:nodetypes="ccccc" /><path
         id="rect584-5"
         style="fill:#a5a5a5;fill-opacity:1;stroke:#414141;stroke-width:0.228234;stroke-dasharray:none;stroke-opacity:0.786145"
         d="M 52.215929,80.20383 75.671417,67.462607 75.735907,68.452579 52.213468,81.43332 Z"
         sodipodi:nodetypes="ccccc" /><path
         id="rect584-0"
         style="fill:#a5a5a5;fill-opacity:1;stroke:#414141;stroke-width:0.228234;stroke-dasharray:none;stroke-opacity:0.786145"
         d="M 52.193294,82.898861 75.648786,70.157637 75.713326,71.14761 52.190884,84.12835 Z"
         sodipodi:nodetypes="ccccc" /><path
         id="rect584-07"
         style="fill:#a5a5a5;fill-opacity:1;stroke:#414141;stroke-width:0.228234;stroke-dasharray:none;stroke-opacity:0.786145"
         d="M 52.059389,86.346501 75.514881,73.605277 75.579421,74.59525 52.056978,87.57599 Z"
         sodipodi:nodetypes="ccccc" /><path
         id="rect584-1-7"
         style="fill:#a5a5a5;fill-opacity:1;stroke:#414141;stroke-width:0.228234;stroke-dasharray:none;stroke-opacity:0.786145"
         d="m 52.178204,88.924594 23.455492,-12.741224 0.06454,0.989973 -23.522443,12.98074 z"
         sodipodi:nodetypes="ccccc" /><path
         id="rect584-8-8"
         style="fill:#a5a5a5;fill-opacity:1;stroke:#414141;stroke-width:0.228234;stroke-dasharray:none;stroke-opacity:0.786145"
         d="m 52.260246,91.636572 23.455492,-12.741223 0.06454,0.989972 -23.522443,12.980741 z"
         sodipodi:nodetypes="ccccc" /><path
         id="rect584-5-9"
         style="fill:#a5a5a5;fill-opacity:1;stroke:#414141;stroke-width:0.228234;stroke-dasharray:none;stroke-opacity:0.786145"
         d="M 52.535601,93.996872 75.99109,81.255648 76.05558,82.245621 52.533141,95.226361 Z"
         sodipodi:nodetypes="ccccc" /><path
         id="rect584-0-5"
         style="fill:#a5a5a5;fill-opacity:1;stroke:#414141;stroke-width:0.228234;stroke-dasharray:none;stroke-opacity:0.786145"
         d="m 52.512967,96.691901 23.455491,-12.741222 0.06454,0.989973 -23.522443,12.980739 z"
         sodipodi:nodetypes="ccccc" /><path
         id="rect28779-2-4"
         style="fill:#cccccc;fill-opacity:0.875;stroke:#150904;stroke-width:1.12946;stroke-opacity:1"
         d="m 96.895642,68.400203 5.928318,3.472991 -0.16166,30.548086 -5.701088,-3.716119 z"
         sodipodi:nodetypes="ccccc" /><path
         id="rect28781-0-4"
         style="fill:#999999;fill-opacity:0.875;stroke:#150904;stroke-width:1.12946;stroke-opacity:1"
         d="m 124.2578,52.30818 5.66085,2.972785 -27.14887,15.587942 -5.339908,-3.313977 z"
         sodipodi:nodetypes="ccccc" /><path
         id="rect28779-9-9-0"
         style="fill:#cccccc;fill-opacity:0.875;stroke:#150904;stroke-width:1.12946;stroke-opacity:1"
         d="m 124.79328,52.776844 4.8253,2.485278 0.30007,31.090173 -5.61515,-3.088225 z"
         sodipodi:nodetypes="ccccc" /><path
         id="rect30936-4-6"
         style="fill:#b3b3b3;fill-opacity:0.87451;stroke:#150904;stroke-width:1.12946;stroke-opacity:1"
         d="m 97.429872,98.653491 26.827788,-15.670383 5.66099,3.369187 -26.83371,15.783855 z"
         sodipodi:nodetypes="ccccc" /><path
         id="rect31129-5-8"
         style="fill:#cccccc;fill-opacity:0.87451;stroke:#150904;stroke-width:1.12946;stroke-opacity:1"
         d="M 103.75964,71.320506 130.49268,56.23277 130.6466,86.896205 103.75964,102.47737 Z"
         sodipodi:nodetypes="ccccc" /></g><text
       xml:space="preserve"
       transform="matrix(0.17696883,0,0,0.17696883,-42.843645,50.360106)"
       id="text15952"
       style="font-weight:bold;font-size:31.8951px;font-family:sans-serif;-inkscape-font-specification:'sans-serif Bold';text-align:center;white-space:pre;shape-inside:url(#rect15954);fill:#000000;fill-opacity:0.784314;stroke:#414141;stroke-width:0.737008;stroke-opacity:0.786145"><tspan
         x="542.76447"
         y="651.75902"
         id="tspan16176">Smooth 
</tspan><tspan
         x="531.80832"
         y="691.62792"
         id="tspan16178">substrate</tspan></text><text
       xml:space="preserve"
       transform="matrix(0.17696883,0,0,0.17696883,-78.932897,50.331285)"
       id="text15952-3"
       style="font-weight:bold;font-size:31.8951px;font-family:sans-serif;-inkscape-font-specification:'sans-serif Bold';text-align:center;white-space:pre;shape-inside:url(#rect15954-6);fill:#000000;fill-opacity:0.784314;stroke:#414141;stroke-width:0.737008;stroke-opacity:0.786145"><tspan
         x="514.52375"
         y="651.75902"
         id="tspan16180">Rough 
</tspan><tspan
         x="492.13644"
         y="691.62792"
         id="tspan16182">substrate</tspan></text></g></svg>
