<?xml version="1.0" encoding="UTF-8" standalone="no"?>
<!-- Created with Inkscape (http://www.inkscape.org/) -->

<svg
   width="297mm"
   height="210mm"
   viewBox="0 0 1122.5197 793.70081"
   version="1.1"
   id="svg5"
   inkscape:version="1.2 (dc2aedaf03, 2022-05-15)"
   sodipodi:docname="Figura_experimento_pool_riffle.svg"
   inkscape:export-filename="MS_Junqueira_et_al\Figura_experimento.png"
   inkscape:export-xdpi="96"
   inkscape:export-ydpi="96"
   xmlns:inkscape="http://www.inkscape.org/namespaces/inkscape"
   xmlns:sodipodi="http://sodipodi.sourceforge.net/DTD/sodipodi-0.dtd"
   xmlns="http://www.w3.org/2000/svg"
   xmlns:svg="http://www.w3.org/2000/svg">
  <sodipodi:namedview
     id="namedview7"
     pagecolor="#ffffff"
     bordercolor="#000000"
     borderopacity="0.25"
     inkscape:showpageshadow="2"
     inkscape:pageopacity="0.0"
     inkscape:pagecheckerboard="0"
     inkscape:deskcolor="#d1d1d1"
     inkscape:document-units="mm"
     showgrid="true"
     inkscape:zoom="0.81768849"
     inkscape:cx="563.78438"
     inkscape:cy="439.65398"
     inkscape:window-width="1600"
     inkscape:window-height="900"
     inkscape:window-x="0"
     inkscape:window-y="0"
     inkscape:window-maximized="1"
     inkscape:current-layer="layer1">
    <inkscape:grid
       type="xygrid"
       id="grid223"
       enabled="false" />
    <inkscape:grid
       type="axonomgrid"
       id="grid24829"
       spacingy="20"
       units="px" />
  </sodipodi:namedview>
  <defs
     id="defs2">
    <rect
       x="569.59344"
       y="90.193271"
       width="196.05024"
       height="65.058178"
       id="rect37072" />
    <inkscape:perspective
       sodipodi:type="inkscape:persp3d"
       inkscape:vp_x="120.40119 : 206.58469 : 1"
       inkscape:vp_y="-682.46483 : -81.974213 : 0"
       inkscape:vp_z="377.39604 : 412.36033 : 1"
       inkscape:persp3d-origin="224.8559 : 179.56088 : 1"
       id="perspective8504" />
    <rect
       x="22.483839"
       y="19.024787"
       width="19.88955"
       height="23.348602"
       id="rect501" />
  </defs>
  <g
     inkscape:groupmode="layer"
     id="layer2"
     inkscape:label="Camada 2" />
  <g
     inkscape:label="Camada 1"
     inkscape:groupmode="layer"
     id="layer1">
    <path
       style="fill:#ffb380;stroke-width:2.09943"
       d="M 516.81203,119.55328 509.55,704.14647"
       id="path225" />
    <path
       style="fill:#ffb380;stroke-width:0.742259"
       d="M 510.45775,121.36879 509.55,701.4232"
       id="path227" />
    <path
       style="fill:#ae6b2e;fill-opacity:0.852273;stroke-width:0.742259"
       d="M 123.9343,368.7123 Z"
       id="path9262" />
    <path
       style="fill:#00a8ff;fill-opacity:0.833333;stroke-width:0.742259"
       d="m 97.938216,406.90408 44.289634,-66.1135"
       id="path9398" />
    <path
       style="fill:#803300;fill-opacity:0.833333;stroke-width:0.742259"
       d="M 189.08499,274.67708 210.90886,377.6986"
       id="path24898" />
    <path
       id="rect25086"
       style="fill:#3f90f6;fill-opacity:0.564394;stroke-width:0.790464"
       d="M 468.03881,70.146006 606.23255,150.0057 208.10408,381.46119 71.696146,301.76595 Z"
       sodipodi:nodetypes="ccccc" />
    <path
       id="rect25086-0"
       style="fill:#3f90f4;fill-opacity:0.454546;stroke-width:0.790464"
       d="M 468.95603,129.11993 606.23255,210.13159 212.89617,436.63686 71.696156,355.26079 Z"
       sodipodi:nodetypes="ccccc" />
    <path
       id="rect25111"
       style="fill:#3f90f4;fill-opacity:0.412879;stroke-width:0.86112"
       d="m 71.696146,301.76595 136.835134,79.69524 -0.0481,52.68722 -136.787064,-78.88762 z"
       sodipodi:nodetypes="ccccc" />
    <path
       id="rect25142"
       style="fill:#3e8ff5;fill-opacity:0.627451;stroke-width:0.742259"
       d="m 468.03881,70.146006 138.05223,79.799774 0.14151,60.18581 -137.12128,-81.01166 z"
       sodipodi:nodetypes="ccccc" />
    <path
       id="rect27036-1-4-8-7"
       style="fill:#008012;fill-opacity:0.606061;stroke-width:0.661798"
       d="M 17.320508,270 415.59333,39.869685 468.03881,70.236101 72.560906,301.76595 Z"
       sodipodi:nodetypes="ccccc" />
    <path
       id="rect31277"
       style="fill:#ab4400;fill-opacity:0.545098"
       d="m 17.320508,282.96771 54.375638,31.74449 1e-5,40.54859 -54.375648,-31.42789 z"
       sodipodi:nodetypes="ccccc" />
    <path
       id="rect31748"
       style="fill:#138449;fill-opacity:0.85098;stroke-width:1.00811"
       d="m 17.320508,270 54.375638,31.31505 v 13.7029 L 17.320508,282.96771 Z"
       sodipodi:nodetypes="ccccc" />
    <path
       id="rect32876"
       style="fill:#ab4400;fill-opacity:0.545098"
       d="M 262.69358,425.85104 658.22845,199.77843 v 43.98223 L 262.69358,471.17515 Z"
       sodipodi:nodetypes="ccccc" />
    <path
       id="rect36428"
       style="fill:#ab4400;fill-opacity:0.545098"
       d="M 17.320508,323.77677 262.69358,465.53641 v 5.63874 L 17.320508,330.08968 Z"
       sodipodi:nodetypes="ccccc" />
    <path
       id="rect27036-1-4-8-7-6"
       style="fill:#008012;fill-opacity:0.606061;stroke-width:0.661798"
       d="M 207.88271,381.245 605.78293,149.31304 658.22845,179.67946 262.75051,411.20931 Z"
       sodipodi:nodetypes="ccccc" />
    <path
       id="rect31748-3"
       style="fill:#138449;fill-opacity:0.85098;stroke-width:1.00811"
       d="m 208.31794,380.83309 54.37564,30.37622 0,14.64173 -54.37564,-32.05024 z"
       sodipodi:nodetypes="ccccc" />
    <path
       id="rect31277-9"
       style="fill:#ab4400;fill-opacity:0.545098"
       d="m 208.35549,393.40022 54.37564,31.74449 10e-6,40.54859 -54.37565,-31.42789 z"
       sodipodi:nodetypes="ccccc" />
    <path
       id="rect37921"
       style="fill:#0e8245;fill-opacity:0.784314"
       d="M 262.69357,411.20929 658.22845,179.45844 v 20.75653 L 262.69358,425.85104 Z"
       sodipodi:nodetypes="ccccc" />
    <path
       id="path38062"
       style="fill:#333333;fill-opacity:0.545098;stroke-width:0.785031"
       d="m 186.84079,297.89201 -39.37421,23.08175 0.47838,0.28671 v 7.97605 l 27.04984,15.69754 0.0706,-0.0413 0.37412,0.22386 41.30918,-23.76099 -0.81722,-0.43852 v -7.37959 l -6.65591,3.80863 -0.0107,-0.006 6.66664,-3.83469 z" />
    <path
       id="path38062-4"
       style="fill:#333333;fill-opacity:0.545098;stroke-width:0.785031"
       d="m 224.99136,321.35105 -39.37421,23.08175 0.47838,0.28671 v 7.97605 l 27.04984,15.69754 0.0706,-0.0413 0.37412,0.22386 41.30918,-23.76099 -0.81722,-0.43852 v -7.37959 l -6.65591,3.80863 -0.0107,-0.006 6.66664,-3.83469 z" />
    <path
       id="path38062-44"
       style="fill:#333333;fill-opacity:0.545098;stroke-width:0.785031"
       d="m 360.37699,195.26616 -39.37421,23.08175 0.47838,0.28671 v 7.97605 l 27.04984,15.69754 0.0706,-0.0413 0.37412,0.22386 41.30918,-23.76099 -0.81722,-0.43852 v -7.37959 l -6.65591,3.80863 -0.0107,-0.006 6.66664,-3.83469 z" />
    <path
       id="path38062-7"
       style="fill:#333333;fill-opacity:0.545098;stroke-width:0.785031"
       d="m 397.91533,217.77062 -39.37421,23.08175 0.47838,0.28671 v 7.97605 l 27.04984,15.69754 0.0706,-0.0413 0.37412,0.22386 41.30918,-23.76099 -0.81722,-0.43852 v -7.37959 l -6.65591,3.80863 -0.0107,-0.006 6.66664,-3.83469 z" />
    <text
       xml:space="preserve"
       style="font-style:normal;font-variant:normal;font-weight:bold;font-stretch:normal;font-size:18.6667px;font-family:sans-serif;-inkscape-font-specification:'sans-serif Bold';text-align:center;text-anchor:middle;fill:#333333;fill-opacity:0.545098"
       x="518.43488"
       y="-152.28154"
       id="text38278"
       transform="rotate(30)"><tspan
         sodipodi:role="line"
         id="tspan38276"
         x="518.43488"
         y="-152.28154"
         style="font-size:18.6667px;fill:#ffffff">water flow</tspan></text>
    <text
       xml:space="preserve"
       style="font-style:normal;font-variant:normal;font-weight:bold;font-stretch:normal;font-size:18.6667px;line-height:0.6;font-family:sans-serif;-inkscape-font-specification:'sans-serif Bold';text-align:center;text-anchor:middle;fill:#333333;fill-opacity:0.545098"
       x="382.22876"
       y="101.51725"
       id="text38278-5"
       transform="rotate(30)"><tspan
         sodipodi:role="line"
         id="tspan38276-1"
         x="382.22876"
         y="101.51725"
         style="font-size:18.6667px;fill:#ffffff">Riffle</tspan></text>
    <text
       xml:space="preserve"
       style="font-style:normal;font-variant:normal;font-weight:bold;font-stretch:normal;font-size:18.6667px;font-family:sans-serif;-inkscape-font-specification:'sans-serif Bold';text-align:center;text-anchor:middle;fill:#333333;fill-opacity:0.545098"
       x="469.33124"
       y="-53.395882"
       id="text38278-9"
       transform="rotate(30)"><tspan
         sodipodi:role="line"
         id="tspan38276-6"
         x="469.33124"
         y="-53.395882"
         style="font-size:18.6667px;fill:#ffffff">Pool</tspan></text>
    <path
       id="rect38626-0-4"
       style="fill:#ffffff;fill-opacity:0.545098;stroke-width:1.54192"
       d="m 520.7281,131.995 -21.98186,9.83655 -3.68463,-1.75838 -5.50542,8.39813 16.61241,-3.10111 -3.61168,-1.72283 21.38488,-10.17018 z" />
    <path
       id="rect38626-0-4-2"
       style="fill:#ffffff;fill-opacity:0.545098;stroke-width:1.54192"
       d="m 498.10335,124.65724 -21.98186,9.83655 -3.68463,-1.75838 -5.50542,8.39813 16.61241,-3.10111 -3.61168,-1.72283 21.38488,-10.17018 z" />
    <path
       id="rect38626-0-4-4"
       style="fill:#ffffff;fill-opacity:0.545098;stroke-width:1.54192"
       d="m 534.99121,147.14065 -21.98186,9.83655 -3.68463,-1.75838 -5.50542,8.39813 16.61241,-3.10111 -3.61168,-1.72283 21.38488,-10.17018 z" />
  </g>
</svg>
